# Blender 4.4.1
# www.blender.org
mtllib hammer.mtl
o 円柱.001
v 0.000000 -0.253574 -0.055000
v 0.000000 1.946426 -0.055000
v 0.010730 -0.253574 -0.053943
v 0.010730 1.946426 -0.053943
v 0.021048 -0.253574 -0.050813
v 0.021048 1.946426 -0.050813
v 0.030556 -0.253574 -0.045731
v 0.030556 1.946426 -0.045731
v 0.038891 -0.253574 -0.038891
v 0.038891 1.946426 -0.038891
v 0.045731 -0.253574 -0.030556
v 0.045731 1.946426 -0.030556
v 0.050813 -0.253574 -0.021048
v 0.050813 1.946426 -0.021048
v 0.053943 -0.253574 -0.010730
v 0.053943 1.946426 -0.010730
v 0.055000 -0.253574 0.000000
v 0.055000 1.946426 0.000000
v 0.053943 -0.253574 0.010730
v 0.053943 1.946426 0.010730
v 0.050813 -0.253574 0.021048
v 0.050813 1.946426 0.021048
v 0.045731 -0.253574 0.030556
v 0.045731 1.946426 0.030556
v 0.038891 -0.253574 0.038891
v 0.038891 1.946426 0.038891
v 0.030556 -0.253574 0.045731
v 0.030556 1.946426 0.045731
v 0.021048 -0.253574 0.050813
v 0.021048 1.946426 0.050813
v 0.010730 -0.253574 0.053943
v 0.010730 1.946426 0.053943
v 0.000000 -0.253574 0.055000
v 0.000000 1.946426 0.055000
v -0.010730 -0.253574 0.053943
v -0.010730 1.946426 0.053943
v -0.021048 -0.253574 0.050813
v -0.021048 1.946426 0.050813
v -0.030556 -0.253574 0.045731
v -0.030556 1.946426 0.045731
v -0.038891 -0.253574 0.038891
v -0.038891 1.946426 0.038891
v -0.045731 -0.253574 0.030556
v -0.045731 1.946426 0.030556
v -0.050813 -0.253574 0.021048
v -0.050813 1.946426 0.021048
v -0.053943 -0.253574 0.010730
v -0.053943 1.946426 0.010730
v -0.055000 -0.253574 0.000000
v -0.055000 1.946426 0.000000
v -0.053943 -0.253574 -0.010730
v -0.053943 1.946426 -0.010730
v -0.050813 -0.253574 -0.021048
v -0.050813 1.946426 -0.021048
v -0.045731 -0.253574 -0.030556
v -0.045731 1.946426 -0.030556
v -0.038891 -0.253574 -0.038891
v -0.038891 1.946426 -0.038891
v -0.030556 -0.253574 -0.045731
v -0.030556 1.946426 -0.045731
v -0.021048 -0.253574 -0.050813
v -0.021048 1.946426 -0.050813
v -0.010730 -0.253574 -0.053943
v -0.010730 1.946426 -0.053943
v 0.000000 3.046426 -0.825000
v 0.000000 3.046426 0.825000
v 0.107300 3.035858 -0.825000
v 0.107300 3.035858 0.825000
v 0.210476 3.004560 -0.825000
v 0.210476 3.004560 0.825000
v 0.305564 2.953734 -0.825000
v 0.305564 2.953734 0.825000
v 0.388909 2.885334 -0.825000
v 0.388909 2.885334 0.825000
v 0.457308 2.801990 -0.825000
v 0.457308 2.801990 0.825000
v 0.508134 2.706902 -0.825000
v 0.508134 2.706902 0.825000
v 0.539432 2.603725 -0.825000
v 0.539432 2.603725 0.825000
v 0.550000 2.496426 -0.825000
v 0.550000 2.496426 0.825000
v 0.539432 2.389126 -0.825000
v 0.539432 2.389126 0.825000
v 0.508134 2.285950 -0.825000
v 0.508134 2.285950 0.825000
v 0.457308 2.190863 -0.825000
v 0.457308 2.190863 0.825000
v 0.388909 2.107517 -0.825000
v 0.388909 2.107517 0.825000
v 0.305564 2.039118 -0.825000
v 0.305564 2.039118 0.825000
v 0.210476 1.988292 -0.825000
v 0.210476 1.988292 0.825000
v 0.107300 1.956994 -0.825000
v 0.107300 1.956994 0.825000
v 0.000000 1.946426 -0.825000
v 0.000000 1.946426 0.825000
v -0.107300 1.956994 -0.825000
v -0.107300 1.956994 0.825000
v -0.210476 1.988292 -0.825000
v -0.210476 1.988292 0.825000
v -0.305564 2.039118 -0.825000
v -0.305564 2.039118 0.825000
v -0.388909 2.107517 -0.825000
v -0.388909 2.107517 0.825000
v -0.457308 2.190863 -0.825000
v -0.457308 2.190863 0.825000
v -0.508134 2.285950 -0.825000
v -0.508134 2.285950 0.825000
v -0.539432 2.389126 -0.825000
v -0.539432 2.389126 0.825000
v -0.550000 2.496426 -0.825000
v -0.550000 2.496426 0.825000
v -0.539432 2.603725 -0.825000
v -0.539432 2.603725 0.825000
v -0.508134 2.706902 -0.825000
v -0.508134 2.706902 0.825000
v -0.457308 2.801990 -0.825000
v -0.457308 2.801990 0.825000
v -0.388909 2.885334 -0.825000
v -0.388909 2.885334 0.825000
v -0.305564 2.953734 -0.825000
v -0.305564 2.953734 0.825000
v -0.210476 3.004560 -0.825000
v -0.210476 3.004560 0.825000
v -0.107300 3.035858 -0.825000
v -0.107300 3.035858 0.825000
vn 0.0980 -0.0000 -0.9952
vn 0.2903 -0.0000 -0.9569
vn 0.4714 -0.0000 -0.8819
vn 0.6344 -0.0000 -0.7730
vn 0.7730 -0.0000 -0.6344
vn 0.8819 -0.0000 -0.4714
vn 0.9569 -0.0000 -0.2903
vn 0.9952 -0.0000 -0.0980
vn 0.9952 -0.0000 0.0980
vn 0.9569 -0.0000 0.2903
vn 0.8819 -0.0000 0.4714
vn 0.7730 -0.0000 0.6344
vn 0.6344 -0.0000 0.7730
vn 0.4714 -0.0000 0.8819
vn 0.2903 -0.0000 0.9569
vn 0.0980 -0.0000 0.9952
vn -0.0980 -0.0000 0.9952
vn -0.2903 -0.0000 0.9569
vn -0.4714 -0.0000 0.8819
vn -0.6344 -0.0000 0.7730
vn -0.7730 -0.0000 0.6344
vn -0.8819 -0.0000 0.4714
vn -0.9569 -0.0000 0.2903
vn -0.9952 -0.0000 0.0980
vn -0.9952 -0.0000 -0.0980
vn -0.9569 -0.0000 -0.2903
vn -0.8819 -0.0000 -0.4714
vn -0.7730 -0.0000 -0.6344
vn -0.6344 -0.0000 -0.7730
vn -0.4714 -0.0000 -0.8819
vn -0.0000 1.0000 -0.0000
vn -0.2903 -0.0000 -0.9569
vn -0.0980 -0.0000 -0.9952
vn -0.0000 -1.0000 -0.0000
vn 0.0980 0.9952 -0.0000
vn 0.2903 0.9569 -0.0000
vn 0.4714 0.8819 -0.0000
vn 0.6344 0.7730 -0.0000
vn 0.7730 0.6344 -0.0000
vn 0.8819 0.4714 -0.0000
vn 0.9569 0.2903 -0.0000
vn 0.9952 0.0980 -0.0000
vn 0.9952 -0.0980 -0.0000
vn 0.9569 -0.2903 -0.0000
vn 0.8819 -0.4714 -0.0000
vn 0.7730 -0.6344 -0.0000
vn 0.6344 -0.7730 -0.0000
vn 0.4714 -0.8819 -0.0000
vn 0.2903 -0.9569 -0.0000
vn 0.0980 -0.9952 -0.0000
vn -0.0980 -0.9952 -0.0000
vn -0.2903 -0.9569 -0.0000
vn -0.4714 -0.8819 -0.0000
vn -0.6344 -0.7730 -0.0000
vn -0.7730 -0.6344 -0.0000
vn -0.8819 -0.4714 -0.0000
vn -0.9569 -0.2903 -0.0000
vn -0.9952 -0.0980 -0.0000
vn -0.9952 0.0980 -0.0000
vn -0.9569 0.2903 -0.0000
vn -0.8819 0.4714 -0.0000
vn -0.7730 0.6344 -0.0000
vn -0.6344 0.7730 -0.0000
vn -0.4714 0.8819 -0.0000
vn -0.0000 -0.0000 1.0000
vn -0.2903 0.9569 -0.0000
vn -0.0980 0.9952 -0.0000
vn -0.0000 -0.0000 -1.0000
vn 0.0001 1.0000 -0.0000
vn 0.0002 1.0000 -0.0000
vn 0.0003 1.0000 -0.0000
vn -0.0002 1.0000 -0.0000
vn -0.0001 1.0000 -0.0000
vn -0.0003 1.0000 -0.0000
vn 0.0001 -1.0000 -0.0000
vn -0.0001 -1.0000 -0.0000
vt 0.921441 0.635420
vt 0.918366 0.008078
vt 0.921441 0.008078
vt 0.918366 0.635420
vt 0.915292 0.008078
vt 0.915292 0.635420
vt 0.912217 0.008078
vt 0.912217 0.635420
vt 0.909143 0.008078
vt 0.909143 0.635420
vt 0.906068 0.008078
vt 0.906068 0.635420
vt 0.902994 0.008078
vt 0.902994 0.635420
vt 0.899919 0.008078
vt 0.899919 0.635420
vt 0.896844 0.008078
vt 0.896844 0.635420
vt 0.893770 0.008078
vt 0.893770 0.635420
vt 0.890695 0.008078
vt 0.890695 0.635420
vt 0.887621 0.008078
vt 0.887621 0.635420
vt 0.884546 0.008078
vt 0.884546 0.635420
vt 0.881472 0.008078
vt 0.881472 0.635420
vt 0.878397 0.008078
vt 0.878397 0.635420
vt 0.875323 0.008078
vt 0.875323 0.635420
vt 0.872248 0.008078
vt 0.872248 0.635420
vt 0.869174 0.008078
vt 0.869174 0.635420
vt 0.866099 0.008078
vt 0.866099 0.635420
vt 0.863025 0.008078
vt 0.863025 0.635420
vt 0.859950 0.008078
vt 0.859950 0.635420
vt 0.856876 0.008078
vt 0.856876 0.635420
vt 0.853801 0.008078
vt 0.853801 0.635420
vt 0.850727 0.008078
vt 0.850727 0.635420
vt 0.847652 0.008078
vt 0.847652 0.635420
vt 0.844578 0.008078
vt 0.844578 0.635420
vt 0.841503 0.008078
vt 0.841503 0.635420
vt 0.838429 0.008078
vt 0.838429 0.635420
vt 0.835354 0.008078
vt 0.835354 0.635420
vt 0.832280 0.008078
vt 0.832280 0.635420
vt 0.829205 0.008078
vt 0.843217 0.652175
vt 0.853672 0.671736
vt 0.834111 0.682192
vt 0.829205 0.635420
vt 0.826131 0.008078
vt 0.826131 0.635420
vt 0.823056 0.008078
vt 0.837127 0.730163
vt 0.823056 0.713018
vt 0.840201 0.698947
vt 0.008078 0.991922
vt 0.478584 0.961177
vt 0.478584 0.991922
vt 0.008078 0.961177
vt 0.478584 0.930432
vt 0.008078 0.930432
vt 0.478584 0.899687
vt 0.008078 0.899687
vt 0.478584 0.868942
vt 0.008078 0.868942
vt 0.478584 0.838197
vt 0.008078 0.838197
vt 0.478584 0.807452
vt 0.008078 0.807452
vt 0.478584 0.776706
vt 0.008078 0.776706
vt 0.478584 0.745961
vt 0.008078 0.745961
vt 0.478584 0.715216
vt 0.008078 0.715216
vt 0.478584 0.684471
vt 0.008078 0.684471
vt 0.478584 0.653726
vt 0.008078 0.653726
vt 0.478584 0.622981
vt 0.008078 0.622981
vt 0.478584 0.592235
vt 0.008078 0.592235
vt 0.478584 0.561490
vt 0.008078 0.561490
vt 0.478584 0.530745
vt 0.008078 0.530745
vt 0.478584 0.500000
vt 0.008078 0.500000
vt 0.478584 0.469255
vt 0.008078 0.469255
vt 0.478584 0.438510
vt 0.008078 0.438510
vt 0.478584 0.407765
vt 0.008078 0.407765
vt 0.478584 0.377020
vt 0.008078 0.377020
vt 0.478584 0.346274
vt 0.008078 0.346274
vt 0.478584 0.315529
vt 0.008078 0.315529
vt 0.478584 0.284784
vt 0.008078 0.284784
vt 0.478584 0.254039
vt 0.008078 0.254039
vt 0.478584 0.223294
vt 0.008078 0.223294
vt 0.478584 0.192549
vt 0.008078 0.192549
vt 0.478584 0.161804
vt 0.008078 0.161804
vt 0.478584 0.131058
vt 0.008078 0.131058
vt 0.478584 0.100313
vt 0.008078 0.100313
vt 0.478584 0.069568
vt 0.576889 0.630791
vt 0.512504 0.418543
vt 0.724752 0.354158
vt 0.008078 0.069568
vt 0.478584 0.038823
vt 0.008078 0.038823
vt 0.478584 0.008078
vt 0.500738 0.209685
vt 0.512504 0.090226
vt 0.789137 0.238090
vt 0.831271 0.681015
vt 0.828715 0.679307
vt 0.826541 0.677133
vt 0.824832 0.674577
vt 0.823656 0.671736
vt 0.823056 0.668721
vt 0.823056 0.665646
vt 0.823656 0.662631
vt 0.824833 0.659791
vt 0.831271 0.653352
vt 0.826541 0.657234
vt 0.828715 0.655060
vt 0.834111 0.652176
vt 0.837127 0.651576
vt 0.840201 0.651576
vt 0.846057 0.653352
vt 0.852496 0.659791
vt 0.848614 0.655060
vt 0.850788 0.657234
vt 0.853672 0.662631
vt 0.854272 0.665646
vt 0.854272 0.668721
vt 0.852496 0.674577
vt 0.850788 0.677133
vt 0.848614 0.679307
vt 0.846057 0.681015
vt 0.843217 0.682192
vt 0.840201 0.682792
vt 0.837127 0.682792
vt 0.823056 0.635420
vt 0.843217 0.699547
vt 0.846057 0.700724
vt 0.848614 0.702432
vt 0.850788 0.704606
vt 0.852496 0.707162
vt 0.853673 0.710003
vt 0.854272 0.713018
vt 0.854272 0.716093
vt 0.853673 0.719108
vt 0.852496 0.721949
vt 0.850788 0.724505
vt 0.848614 0.726679
vt 0.846057 0.728387
vt 0.843217 0.729564
vt 0.840201 0.730163
vt 0.834112 0.729564
vt 0.831271 0.728387
vt 0.828715 0.726679
vt 0.826541 0.724505
vt 0.824833 0.721949
vt 0.823656 0.719108
vt 0.823056 0.716093
vt 0.823656 0.710003
vt 0.824833 0.707162
vt 0.826541 0.704606
vt 0.828715 0.702432
vt 0.831271 0.700724
vt 0.834112 0.699547
vt 0.837127 0.698947
vt 0.551325 0.613710
vt 0.529585 0.591970
vt 0.512504 0.566406
vt 0.500738 0.538001
vt 0.494740 0.507847
vt 0.494740 0.477102
vt 0.500738 0.446948
vt 0.529585 0.392979
vt 0.551325 0.371239
vt 0.576888 0.354158
vt 0.605293 0.342392
vt 0.635448 0.336394
vt 0.666192 0.336394
vt 0.696347 0.342392
vt 0.750315 0.371239
vt 0.800902 0.446947
vt 0.772056 0.392979
vt 0.789137 0.418542
vt 0.806900 0.477101
vt 0.806900 0.507847
vt 0.800903 0.538001
vt 0.789137 0.566406
vt 0.772056 0.591969
vt 0.696347 0.642556
vt 0.750316 0.613710
vt 0.724752 0.630791
vt 0.666193 0.648555
vt 0.635448 0.648555
vt 0.605293 0.642556
vt 0.008078 0.008078
vt 0.529585 0.064663
vt 0.605293 0.014076
vt 0.551325 0.042923
vt 0.576889 0.025842
vt 0.635448 0.008078
vt 0.724752 0.025842
vt 0.666193 0.008078
vt 0.696347 0.014076
vt 0.750316 0.042923
vt 0.772056 0.064663
vt 0.789137 0.090226
vt 0.800902 0.118631
vt 0.806901 0.148786
vt 0.806901 0.179531
vt 0.800902 0.209685
vt 0.772056 0.263654
vt 0.750316 0.285394
vt 0.724752 0.302475
vt 0.696347 0.314240
vt 0.666193 0.320238
vt 0.635448 0.320238
vt 0.605293 0.314240
vt 0.576889 0.302475
vt 0.551325 0.285394
vt 0.529585 0.263653
vt 0.512504 0.238090
vt 0.494740 0.179531
vt 0.494740 0.148786
vt 0.500738 0.118631
s 0
usemtl マテリアル
f 2/1/1 3/2/1 1/3/1
f 4/4/2 5/5/2 3/2/2
f 6/6/3 7/7/3 5/5/3
f 8/8/4 9/9/4 7/7/4
f 10/10/5 11/11/5 9/9/5
f 12/12/6 13/13/6 11/11/6
f 14/14/7 15/15/7 13/13/7
f 16/16/8 17/17/8 15/15/8
f 18/18/9 19/19/9 17/17/9
f 20/20/10 21/21/10 19/19/10
f 22/22/11 23/23/11 21/21/11
f 24/24/12 25/25/12 23/23/12
f 26/26/13 27/27/13 25/25/13
f 28/28/14 29/29/14 27/27/14
f 30/30/15 31/31/15 29/29/15
f 32/32/16 33/33/16 31/31/16
f 34/34/17 35/35/17 33/33/17
f 36/36/18 37/37/18 35/35/18
f 38/38/19 39/39/19 37/37/19
f 40/40/20 41/41/20 39/39/20
f 42/42/21 43/43/21 41/41/21
f 44/44/22 45/45/22 43/43/22
f 46/46/23 47/47/23 45/45/23
f 48/48/24 49/49/24 47/47/24
f 50/50/25 51/51/25 49/49/25
f 52/52/26 53/53/26 51/51/26
f 54/54/27 55/55/27 53/53/27
f 56/56/28 57/57/28 55/55/28
f 58/58/29 59/59/29 57/57/29
f 60/60/30 61/61/30 59/59/30
f 38/62/31 22/63/31 6/64/31
f 62/65/32 63/66/32 61/61/32
f 64/67/33 1/68/33 63/66/33
f 31/69/34 47/70/34 63/71/34
f 66/72/35 67/73/35 65/74/35
f 68/75/36 69/76/36 67/73/36
f 70/77/37 71/78/37 69/76/37
f 72/79/38 73/80/38 71/78/38
f 74/81/39 75/82/39 73/80/39
f 76/83/40 77/84/40 75/82/40
f 78/85/41 79/86/41 77/84/41
f 80/87/42 81/88/42 79/86/42
f 82/89/43 83/90/43 81/88/43
f 84/91/44 85/92/44 83/90/44
f 86/93/45 87/94/45 85/92/45
f 88/95/46 89/96/46 87/94/46
f 90/97/47 91/98/47 89/96/47
f 92/99/48 93/100/48 91/98/48
f 94/101/49 95/102/49 93/100/49
f 96/103/50 97/104/50 95/102/50
f 98/105/51 99/106/51 97/104/51
f 100/107/52 101/108/52 99/106/52
f 102/109/53 103/110/53 101/108/53
f 104/111/54 105/112/54 103/110/54
f 106/113/55 107/114/55 105/112/55
f 108/115/56 109/116/56 107/114/56
f 110/117/57 111/118/57 109/116/57
f 112/119/58 113/120/58 111/118/58
f 114/121/59 115/122/59 113/120/59
f 116/123/60 117/124/60 115/122/60
f 118/125/61 119/126/61 117/124/61
f 120/127/62 121/128/62 119/126/62
f 122/129/63 123/130/63 121/128/63
f 124/131/64 125/132/64 123/130/64
f 70/133/65 118/134/65 102/135/65
f 126/136/66 127/137/66 125/132/66
f 128/138/67 65/139/67 127/137/67
f 119/140/68 127/141/68 95/142/68
f 2/1/1 4/4/1 3/2/1
f 4/4/2 6/6/2 5/5/2
f 6/6/3 8/8/3 7/7/3
f 8/8/4 10/10/4 9/9/4
f 10/10/5 12/12/5 11/11/5
f 12/12/6 14/14/6 13/13/6
f 14/14/7 16/16/7 15/15/7
f 16/16/8 18/18/8 17/17/8
f 18/18/9 20/20/9 19/19/9
f 20/20/10 22/22/10 21/21/10
f 22/22/11 24/24/11 23/23/11
f 24/24/12 26/26/12 25/25/12
f 26/26/13 28/28/13 27/27/13
f 28/28/14 30/30/14 29/29/14
f 30/30/15 32/32/15 31/31/15
f 32/32/16 34/34/16 33/33/16
f 34/34/17 36/36/17 35/35/17
f 36/36/18 38/38/18 37/37/18
f 38/38/19 40/40/19 39/39/19
f 40/40/20 42/42/20 41/41/20
f 42/42/21 44/44/21 43/43/21
f 44/44/22 46/46/22 45/45/22
f 46/46/23 48/48/23 47/47/23
f 48/48/24 50/50/24 49/49/24
f 50/50/25 52/52/25 51/51/25
f 52/52/26 54/54/26 53/53/26
f 54/54/27 56/56/27 55/55/27
f 56/56/28 58/58/28 57/57/28
f 58/58/29 60/60/29 59/59/29
f 60/60/30 62/65/30 61/61/30
f 6/64/69 4/143/69 2/144/69
f 2/144/31 64/145/31 6/64/31
f 64/145/31 62/146/31 6/64/31
f 62/146/70 60/147/70 58/148/70
f 58/148/71 56/149/71 54/150/71
f 54/150/31 52/151/31 46/152/31
f 52/151/72 50/153/72 46/152/72
f 50/153/31 48/154/31 46/152/31
f 46/152/71 44/155/71 42/156/71
f 42/156/70 40/157/70 38/62/70
f 38/62/31 36/158/31 30/159/31
f 36/158/73 34/160/73 30/159/73
f 34/160/69 32/161/69 30/159/69
f 30/159/72 28/162/72 26/163/72
f 26/163/74 24/164/74 22/63/74
f 22/63/31 20/165/31 18/166/31
f 18/166/31 16/167/31 22/63/31
f 16/167/72 14/168/72 22/63/72
f 14/168/74 12/169/74 10/170/74
f 10/170/72 8/171/72 6/64/72
f 62/146/31 58/148/31 6/64/31
f 58/148/31 54/150/31 6/64/31
f 46/152/31 42/156/31 54/150/31
f 42/156/31 38/62/31 54/150/31
f 30/159/31 26/163/31 38/62/31
f 26/163/31 22/63/31 38/62/31
f 14/168/31 10/170/31 22/63/31
f 10/170/31 6/64/31 22/63/31
f 6/64/31 54/150/31 38/62/31
f 62/65/32 64/67/32 63/66/32
f 64/67/33 2/172/33 1/68/33
f 63/71/34 1/173/34 3/174/34
f 3/174/75 5/175/75 7/176/75
f 7/176/76 9/177/76 11/178/76
f 11/178/34 13/179/34 15/180/34
f 15/180/34 17/181/34 19/182/34
f 19/182/34 21/183/34 23/184/34
f 23/184/76 25/185/76 27/186/76
f 27/186/34 29/187/34 31/69/34
f 31/69/34 33/188/34 35/189/34
f 35/189/76 37/190/76 39/191/76
f 39/191/75 41/192/75 43/193/75
f 43/193/34 45/194/34 47/70/34
f 47/70/34 49/195/34 51/196/34
f 51/196/34 53/197/34 55/198/34
f 55/198/75 57/199/75 59/200/75
f 59/200/34 61/201/34 63/71/34
f 63/71/34 3/174/34 15/180/34
f 3/174/34 7/176/34 15/180/34
f 7/176/34 11/178/34 15/180/34
f 15/180/34 19/182/34 31/69/34
f 19/182/34 23/184/34 31/69/34
f 23/184/34 27/186/34 31/69/34
f 31/69/34 35/189/34 47/70/34
f 35/189/34 39/191/34 47/70/34
f 39/191/34 43/193/34 47/70/34
f 47/70/34 51/196/34 63/71/34
f 51/196/34 55/198/34 63/71/34
f 55/198/34 59/200/34 63/71/34
f 63/71/34 15/180/34 31/69/34
f 66/72/35 68/75/35 67/73/35
f 68/75/36 70/77/36 69/76/36
f 70/77/37 72/79/37 71/78/37
f 72/79/38 74/81/38 73/80/38
f 74/81/39 76/83/39 75/82/39
f 76/83/40 78/85/40 77/84/40
f 78/85/41 80/87/41 79/86/41
f 80/87/42 82/89/42 81/88/42
f 82/89/43 84/91/43 83/90/43
f 84/91/44 86/93/44 85/92/44
f 86/93/45 88/95/45 87/94/45
f 88/95/46 90/97/46 89/96/46
f 90/97/47 92/99/47 91/98/47
f 92/99/48 94/101/48 93/100/48
f 94/101/49 96/103/49 95/102/49
f 96/103/50 98/105/50 97/104/50
f 98/105/51 100/107/51 99/106/51
f 100/107/52 102/109/52 101/108/52
f 102/109/53 104/111/53 103/110/53
f 104/111/54 106/113/54 105/112/54
f 106/113/55 108/115/55 107/114/55
f 108/115/56 110/117/56 109/116/56
f 110/117/57 112/119/57 111/118/57
f 112/119/58 114/121/58 113/120/58
f 114/121/59 116/123/59 115/122/59
f 116/123/60 118/125/60 117/124/60
f 118/125/61 120/127/61 119/126/61
f 120/127/62 122/129/62 121/128/62
f 122/129/63 124/131/63 123/130/63
f 124/131/64 126/136/64 125/132/64
f 70/133/65 68/202/65 66/203/65
f 66/203/65 128/204/65 126/205/65
f 126/205/65 124/206/65 122/207/65
f 122/207/65 120/208/65 118/134/65
f 118/134/65 116/209/65 114/210/65
f 114/210/65 112/211/65 118/134/65
f 112/211/65 110/212/65 118/134/65
f 110/212/65 108/213/65 102/135/65
f 108/213/65 106/214/65 102/135/65
f 106/214/65 104/215/65 102/135/65
f 102/135/65 100/216/65 94/217/65
f 100/216/65 98/218/65 94/217/65
f 98/218/65 96/219/65 94/217/65
f 94/217/65 92/220/65 90/221/65
f 90/221/65 88/222/65 94/217/65
f 88/222/65 86/223/65 94/217/65
f 86/223/65 84/224/65 78/225/65
f 84/224/65 82/226/65 78/225/65
f 82/226/65 80/227/65 78/225/65
f 78/225/65 76/228/65 74/229/65
f 74/229/65 72/230/65 70/133/65
f 70/133/65 66/203/65 126/205/65
f 126/205/65 122/207/65 118/134/65
f 78/225/65 74/229/65 70/133/65
f 70/133/65 126/205/65 118/134/65
f 118/134/65 110/212/65 102/135/65
f 102/135/65 94/217/65 86/223/65
f 86/223/65 78/225/65 102/135/65
f 78/225/65 70/133/65 102/135/65
f 126/136/66 128/138/66 127/137/66
f 128/138/67 66/231/67 65/139/67
f 127/141/68 65/232/68 71/233/68
f 65/232/68 67/234/68 71/233/68
f 67/234/68 69/235/68 71/233/68
f 71/233/68 73/236/68 79/237/68
f 73/236/68 75/238/68 79/237/68
f 75/238/68 77/239/68 79/237/68
f 79/237/68 81/240/68 83/241/68
f 83/241/68 85/242/68 87/243/68
f 87/243/68 89/244/68 91/245/68
f 91/245/68 93/246/68 87/243/68
f 93/246/68 95/142/68 87/243/68
f 95/142/68 97/247/68 99/248/68
f 99/248/68 101/249/68 95/142/68
f 101/249/68 103/250/68 95/142/68
f 103/250/68 105/251/68 107/252/68
f 107/252/68 109/253/68 111/254/68
f 111/254/68 113/255/68 115/256/68
f 115/256/68 117/257/68 119/140/68
f 119/140/68 121/258/68 123/259/68
f 123/259/68 125/260/68 119/140/68
f 125/260/68 127/141/68 119/140/68
f 79/237/68 83/241/68 87/243/68
f 103/250/68 107/252/68 95/142/68
f 107/252/68 111/254/68 95/142/68
f 111/254/68 115/256/68 119/140/68
f 127/141/68 71/233/68 95/142/68
f 71/233/68 79/237/68 95/142/68
f 79/237/68 87/243/68 95/142/68
f 111/254/68 119/140/68 95/142/68
