# Blender 4.4.1
# www.blender.org
mtllib spaceship.mtl
o Spaceship4_Cube.001
v 0.462052 -0.557516 -0.144836
v 0.398420 0.323192 -0.144837
v 0.543077 -0.559022 -0.700740
v 0.442673 0.323192 -0.700740
v 0.536933 -0.224712 -0.700740
v 0.538616 -0.236560 -0.144836
v 0.172028 -0.429294 1.830845
v 0.350187 0.268298 -1.852239
v 0.188050 -0.431169 1.784848
v 0.187766 -0.535106 1.784848
v 0.187157 -0.312163 1.784848
v 0.154227 -0.494798 1.831028
v 0.160527 -0.351710 1.830809
v 0.267279 0.392358 -0.700740
v 0.268021 -0.623880 -0.144836
v 0.271538 -0.625386 -0.700740
v 0.232370 0.364678 -0.160514
v 0.196885 -0.595305 -1.852238
v 0.120515 -0.549727 1.784848
v 0.120211 -0.291962 1.784848
v 0.116119 -0.515568 1.830809
v 0.115898 -0.327995 1.830809
v 0.134715 -0.426697 1.853122
v 0.128489 -0.461310 1.853220
v 0.131272 -0.385700 1.853104
v 0.111657 -0.472285 1.853104
v 0.111559 -0.373168 1.853104
v 0.110172 -0.426697 1.868211
v 0.395077 -0.310404 0.427797
v 0.354601 -0.570563 0.427797
v 0.350709 -0.002801 0.427796
v 0.223549 -0.622687 0.427797
v 0.252963 0.083286 0.408545
v 0.405996 -0.572898 0.141480
v 0.468879 -0.273482 0.141480
v 0.404116 0.109961 0.141479
v 0.241706 -0.632142 0.141480
v 0.193069 0.313842 -1.852239
v 0.536110 -0.222512 -1.852238
v 0.440128 -0.535856 -1.852238
v 0.299586 0.491309 -1.868211
v 0.392072 0.546203 -0.716712
v 0.216678 0.615369 -0.716712
v 0.142468 0.553268 -1.868211
v 0.251383 0.437196 -0.703413
v 0.368075 0.398495 -0.703413
v 0.217717 0.561982 -0.714039
v 0.334409 0.523281 -0.714039
v 0.357971 -0.335603 0.663601
v 0.318244 -0.101111 0.663601
v 0.171642 -0.614786 0.663601
v 0.197265 -0.069009 0.652116
v 0.317246 -0.580358 0.663601
v 0.276944 0.332948 -1.855384
v 0.246272 0.468127 -1.865066
v 0.181706 0.367221 -1.855384
v 0.151034 0.505684 -1.865066
v 0.183081 0.129835 -1.157860
v 0.278219 0.102257 -1.157860
v 0.390801 -0.194941 -1.157860
v 0.332681 -0.384678 -1.157859
v 0.185391 -0.420676 -1.157859
v 0.181943 -0.468728 -1.852238
v 0.424174 -0.202528 -1.852238
v 0.355636 -0.426277 -1.852238
v 0.179218 0.180467 -1.852238
v 0.291412 0.147946 -1.852238
v 0.232370 0.390443 -0.072223
v 0.398420 0.347178 -0.062477
v 0.347697 0.244679 0.152787
v 0.252963 0.120729 0.408545
v 0.404116 0.147403 0.141479
v 0.226461 0.223641 0.359786
v 0.148033 0.397862 -0.018128
v 0.137651 0.356535 0.184077
v 0.052812 0.632142 -0.716712
v 0.034725 0.565476 -1.868211
v 0.053066 0.571368 -0.714039
v 0.036813 0.513084 -1.865066
v 0.055162 0.464447 -0.703413
v 0.044648 0.379817 -1.855384
v 0.493204 0.029476 -0.700740
v 0.473575 0.023124 -0.144837
v 0.187636 -0.375959 1.784848
v 0.166692 -0.393301 1.830828
v 0.133118 -0.407677 1.853114
v 0.110816 -0.401864 1.861202
v 0.374493 -0.167698 0.427796
v 0.438834 -0.095593 0.141479
v 0.449855 0.005188 -1.852238
v 0.339540 -0.226816 0.663601
v 0.338571 -0.057063 -1.157860
v 0.362582 -0.039934 -1.852238
v 0.651038 -0.015042 -0.700740
v 0.648227 -0.224712 -0.700740
v 0.629360 -0.021393 -0.304283
v 0.647860 -0.236560 -0.304282
v 0.663634 -0.222512 -1.726359
v 0.659226 -0.039329 -1.726359
v 1.105115 -0.133894 -0.700740
v 1.102304 -0.234271 -0.700740
v 1.112809 -0.136934 -0.463730
v 1.131309 -0.239943 -0.463730
v 1.353592 -0.233218 -1.410496
v 1.351900 -0.145521 -1.410496
v 2.014241 -0.133894 -0.700740
v 2.011430 -0.234271 -0.700740
v 2.026836 -0.233218 -1.124938
v 2.022429 -0.145521 -1.124938
v 2.720561 -0.133894 -0.700740
v 2.717750 -0.234271 -0.700740
v 2.645741 -0.233218 -0.894161
v 2.650134 -0.145521 -0.894161
v -0.462052 -0.557516 -0.144836
v -0.398420 0.323192 -0.144837
v -0.543077 -0.559022 -0.700740
v -0.442673 0.323192 -0.700740
v -0.536933 -0.224712 -0.700740
v -0.538616 -0.236560 -0.144836
v -0.172028 -0.429294 1.830845
v -0.350187 0.268298 -1.852239
v -0.188050 -0.431169 1.784848
v -0.187766 -0.535106 1.784848
v -0.187157 -0.312163 1.784848
v -0.154227 -0.494798 1.831028
v -0.160527 -0.351710 1.830809
v -0.267279 0.392358 -0.700740
v -0.268021 -0.623880 -0.144836
v -0.271538 -0.625386 -0.700740
v -0.232370 0.364678 -0.160514
v -0.196885 -0.595305 -1.852238
v -0.120515 -0.549727 1.784848
v -0.120211 -0.291962 1.784848
v -0.116119 -0.515568 1.830809
v -0.115898 -0.327995 1.830809
v -0.134715 -0.426697 1.853122
v -0.128489 -0.461310 1.853220
v -0.131272 -0.385700 1.853104
v -0.111657 -0.472285 1.853104
v -0.111559 -0.373168 1.853104
v -0.110172 -0.426697 1.868211
v -0.395077 -0.310404 0.427797
v -0.354601 -0.570563 0.427797
v -0.350709 -0.002801 0.427796
v -0.223549 -0.622687 0.427797
v -0.252963 0.083286 0.408545
v -0.405996 -0.572898 0.141480
v -0.468879 -0.273482 0.141480
v -0.404116 0.109961 0.141479
v -0.241706 -0.632142 0.141480
v -0.193069 0.313842 -1.852239
v -0.536110 -0.222512 -1.852238
v -0.440128 -0.535856 -1.852238
v -0.299586 0.491309 -1.868211
v -0.392072 0.546203 -0.716712
v -0.216678 0.615369 -0.716712
v -0.142468 0.553268 -1.868211
v -0.251383 0.437196 -0.703413
v -0.368075 0.398495 -0.703413
v -0.217717 0.561982 -0.714039
v -0.334409 0.523281 -0.714039
v -0.357971 -0.335603 0.663601
v -0.318244 -0.101111 0.663601
v -0.171642 -0.614786 0.663601
v -0.197265 -0.069009 0.652116
v -0.317246 -0.580358 0.663601
v -0.276944 0.332948 -1.855384
v -0.246272 0.468127 -1.865066
v -0.181706 0.367221 -1.855384
v -0.151034 0.505684 -1.865066
v -0.183081 0.129835 -1.157860
v -0.278219 0.102257 -1.157860
v -0.390801 -0.194941 -1.157860
v -0.332681 -0.384678 -1.157859
v -0.185391 -0.420676 -1.157859
v -0.181943 -0.468728 -1.852238
v -0.424174 -0.202528 -1.852238
v -0.355636 -0.426277 -1.852238
v -0.179218 0.180467 -1.852238
v -0.291412 0.147946 -1.852238
v -0.232370 0.390443 -0.072223
v -0.398420 0.347178 -0.062477
v -0.347697 0.244679 0.152787
v -0.252963 0.120729 0.408545
v -0.404116 0.147403 0.141479
v -0.226461 0.223641 0.359786
v -0.148033 0.397862 -0.018128
v -0.137651 0.356535 0.184077
v -0.052812 0.632142 -0.716712
v -0.034725 0.565476 -1.868211
v -0.053066 0.571368 -0.714039
v -0.036813 0.513084 -1.865066
v -0.055162 0.464447 -0.703413
v -0.044648 0.379817 -1.855384
v -0.493204 0.029476 -0.700740
v -0.473575 0.023124 -0.144837
v -0.187636 -0.375959 1.784848
v -0.166692 -0.393301 1.830828
v -0.133118 -0.407677 1.853114
v -0.110816 -0.401864 1.861202
v -0.374493 -0.167698 0.427796
v -0.438834 -0.095593 0.141479
v -0.449855 0.005188 -1.852238
v -0.339540 -0.226816 0.663601
v -0.338571 -0.057063 -1.157860
v -0.362582 -0.039934 -1.852238
v -0.651038 -0.015042 -0.700740
v -0.648227 -0.224712 -0.700740
v -0.629360 -0.021393 -0.304283
v -0.647860 -0.236560 -0.304282
v -0.663634 -0.222512 -1.726359
v -0.659226 -0.039329 -1.726359
v -1.105115 -0.133894 -0.700740
v -1.102304 -0.234271 -0.700740
v -1.112809 -0.136934 -0.463730
v -1.131309 -0.239943 -0.463730
v -1.353592 -0.233218 -1.410496
v -1.351900 -0.145521 -1.410496
v -2.014241 -0.133894 -0.700740
v -2.011430 -0.234271 -0.700740
v -2.026836 -0.233218 -1.124938
v -2.022429 -0.145521 -1.124938
v -2.720561 -0.133894 -0.700740
v -2.717750 -0.234271 -0.700740
v -2.645741 -0.233218 -0.894161
v -2.650134 -0.145521 -0.894161
vn 0.9848 -0.1468 0.0931
vn 0.9967 -0.0667 0.0467
vn 0.9998 0.0184 -0.0026
vn 0.2568 -0.9660 0.0299
vn 0.2993 -0.9541 0.0139
vn 0.3236 -0.9462 0.0046
vn -0.0000 -1.0000 0.0027
vn 0.9746 0.1622 0.1546
vn 0.9906 0.0174 0.1359
vn 0.9903 0.0123 0.1381
vn 0.0001 -1.0000 -0.0021
vn 0.0018 -1.0000 -0.0019
vn -0.0000 -1.0000 -0.0021
vn 0.9792 -0.1533 0.1332
vn 0.9928 -0.0238 0.1176
vn 0.9934 -0.0027 0.1148
vn -0.0000 -0.4579 0.8890
vn 0.8811 -0.1406 0.4516
vn 0.8510 -0.0752 0.5197
vn 0.8082 -0.0022 0.5889
vn -0.0000 -0.9996 -0.0288
vn 0.2289 -0.9712 0.0657
vn 0.2134 -0.9747 0.0662
vn 0.2120 -0.9750 0.0662
vn 0.2265 0.4040 0.8863
vn 0.2310 0.3962 0.8886
vn 0.2408 0.3788 0.8936
vn 0.5419 0.0706 0.8375
vn 0.5406 0.0602 0.8391
vn 0.5388 0.0457 0.8412
vn 0.2398 -0.7067 0.6656
vn 0.2606 -0.7100 0.6542
vn 0.3897 -0.7209 0.5731
vn 0.8727 0.0566 0.4849
vn 0.8748 0.0691 0.4795
vn 0.8826 0.1310 0.4515
vn -0.0000 0.9812 0.1931
vn 0.2340 -0.4182 0.8777
vn 0.2406 -0.4085 0.8805
vn 0.2278 -0.4272 0.8750
vn -0.0000 -0.3145 0.9492
vn 0.0002 -0.0559 -0.9984
vn 0.0015 -0.0435 -0.9991
vn -0.0033 -0.0563 -0.9984
vn 0.2350 0.9505 0.2033
vn 0.2791 0.9373 0.2088
vn 0.2825 0.9362 0.2092
vn 0.2745 0.6947 0.6649
vn 0.2769 0.6912 0.6675
vn 0.3266 0.6146 0.7181
vn 0.2644 0.9627 0.0574
vn 0.3427 0.9388 0.0360
vn 0.2361 0.9696 0.0649
vn -0.0000 -0.8026 0.5965
vn -0.0000 0.2716 0.9624
vn -0.0000 0.4426 0.8967
vn 0.4637 0.1355 0.8756
vn 0.4478 0.1583 0.8800
vn 0.5232 0.0443 0.8511
vn 0.4280 -0.1588 0.8897
vn 0.2990 -0.2416 0.9232
vn 0.5215 -0.0914 0.8483
vn -0.0000 -0.9994 0.0335
vn -0.0000 -0.9994 0.0332
vn 0.5211 -0.1180 0.8453
vn 0.5233 -0.1223 0.8433
vn 0.5333 -0.1426 0.8338
vn 0.5635 0.7274 0.3916
vn 0.3473 -0.9356 0.0643
vn 0.3588 -0.9315 0.0589
vn 0.3690 -0.9278 0.0540
vn 0.9636 -0.1777 0.1997
vn 0.9640 -0.1766 0.1987
vn 0.9727 -0.1513 0.1758
vn 0.9539 0.1571 0.2557
vn 0.9578 0.1465 0.2473
vn 0.9578 0.1426 0.2496
vn 0.9624 0.2128 0.1689
vn 0.9648 0.1969 0.1743
vn 0.9689 0.1637 0.1854
vn 0.9581 -0.2144 0.1899
vn 0.9576 -0.2157 0.1912
vn 0.9631 -0.2023 0.1777
vn 0.3290 -0.9443 0.0096
vn 0.3333 -0.9428 0.0073
vn 0.3392 -0.9407 0.0040
vn -0.0000 0.7870 0.6170
vn 0.0021 -0.0648 -0.9979
vn -0.0060 -0.0617 -0.9981
vn -0.0021 -0.0648 -0.9979
vn -0.0000 -0.9974 -0.0727
vn -0.0224 -0.0658 -0.9976
vn -0.0251 -0.0778 -0.9967
vn -0.0217 -0.0708 -0.9973
vn 0.9727 0.2144 -0.0883
vn 0.9966 -0.0364 -0.0740
vn 0.9709 -0.2389 -0.0171
vn 0.9561 -0.2929 -0.0012
vn 0.2655 0.9639 -0.0217
vn 0.2281 0.9732 -0.0284
vn 0.2245 0.9740 -0.0290
vn 0.2372 -0.9706 -0.0407
vn -0.0000 0.9983 -0.0578
vn 0.3659 0.9278 -0.0736
vn 0.1023 0.9929 -0.0600
vn 0.1114 0.9920 -0.0593
vn 0.1124 0.9919 -0.0592
vn -0.0280 -0.0709 -0.9971
vn -0.0256 -0.0767 -0.9967
vn 0.0225 0.0656 0.9976
vn 0.0228 0.0595 0.9980
vn 0.0223 0.0674 0.9975
vn 0.0182 0.0523 0.9985
vn 0.0221 0.0573 0.9981
vn 0.0230 0.0584 0.9980
vn -0.3169 -0.9459 0.0693
vn -0.3627 -0.9295 0.0668
vn -0.3140 -0.9469 0.0694
vn -0.0021 0.0446 0.9990
vn 0.0022 0.0439 0.9990
vn -0.0022 0.0440 0.9990
vn -0.0000 0.8479 0.5302
vn 0.0210 0.0863 0.9961
vn 0.0413 0.0829 0.9957
vn 0.0471 0.0820 0.9955
vn 0.3360 0.9387 -0.0775
vn 0.3151 0.9458 -0.0786
vn 0.3138 0.9462 -0.0787
vn 0.4281 0.7443 0.5125
vn 0.2875 0.8472 0.4467
vn 0.1993 0.8944 0.4003
vn -0.0000 -0.9995 0.0330
vn 0.3223 -0.9457 0.0417
vn 0.2762 -0.9591 0.0624
vn 0.2293 -0.9698 0.0830
vn -0.0000 -0.9983 0.0579
vn 0.9771 -0.1574 0.1429
vn 0.9773 -0.1570 0.1425
vn 0.9756 -0.1623 0.1478
vn 0.9733 0.1442 0.1788
vn 0.9699 0.1559 0.1873
vn 0.9697 0.1596 0.1851
vn 0.9997 0.0213 -0.0110
vn 0.9983 0.0552 -0.0166
vn 0.9982 0.0575 -0.0170
vn -0.0050 -0.0650 -0.9979
vn -0.0000 0.9976 -0.0690
vn -0.0277 -0.0717 -0.9970
vn -0.9724 -0.2173 0.0852
vn -0.9642 -0.2495 0.0901
vn -0.9730 -0.2147 0.0848
vn -0.9344 -0.3539 -0.0410
vn -0.0000 -0.0000 -1.0000
vn -0.2778 -0.9582 -0.0683
vn -0.2369 0.9693 -0.0659
vn -0.9550 0.2925 -0.0491
vn -0.0000 -0.0725 -0.9974
vn -0.0000 -0.9997 -0.0261
vn -0.0573 -0.9970 0.0520
vn -0.0639 -0.9966 0.0514
vn -0.0568 -0.9970 0.0521
vn 0.0032 0.0487 0.9988
vn 0.0021 0.0446 0.9990
vn 0.0029 0.0501 0.9987
vn 0.0018 0.0306 0.9995
vn -0.0059 0.0559 0.9984
vn 0.0002 0.0555 0.9985
vn 0.0961 0.9927 -0.0732
vn 0.1338 0.9886 -0.0687
vn 0.1372 0.9882 -0.0683
vn -0.0000 0.0989 0.9951
vn 0.9732 0.1469 0.1771
vn 0.9715 0.1646 0.1705
vn 0.9770 0.1973 -0.0804
vn 0.9443 0.3252 -0.0498
vn 0.9818 0.1689 -0.0869
vn 0.9507 0.2111 0.2274
vn 0.9521 0.1948 0.2359
vn 0.9539 0.1611 0.2531
vn 0.9539 0.1545 0.2574
vn 0.9547 0.1377 0.2638
vn 0.2510 0.1606 0.9546
vn 0.2624 0.1458 0.9539
vn 0.3476 0.0296 0.9372
vn 0.9232 0.0595 0.3798
vn 0.9254 0.0697 0.3725
vn 0.9369 0.1390 0.3207
vn 0.5241 0.0688 0.8489
vn 0.5202 0.0587 0.8520
vn 0.5144 0.0435 0.8565
vn 0.9799 0.1930 0.0497
vn 0.9734 0.2197 0.0645
vn 0.9849 0.1694 0.0367
vn 0.9750 0.1604 0.1539
vn 0.9886 0.0074 0.1504
vn 0.2077 0.9779 0.0253
vn 0.1867 0.9824 0.0038
vn 0.1613 0.9867 -0.0221
vn -0.0090 -0.9995 -0.0286
vn -0.0192 -0.9995 -0.0251
vn -0.0244 -0.9994 -0.0257
vn 0.2769 0.9605 0.0281
vn 0.2909 0.9565 0.0228
vn 0.2713 0.9620 0.0302
vn -0.0053 -0.9996 -0.0284
vn -0.0309 -0.9993 -0.0212
vn 0.7791 0.1265 0.6141
vn 0.7698 0.1372 0.6233
vn 0.7282 0.1824 0.6606
vn 0.6140 0.1231 -0.7796
vn 0.6141 0.1230 -0.7796
vn 0.7024 0.0169 -0.7116
vn 0.2543 0.0423 0.9662
vn 0.2596 -0.0034 0.9657
vn 0.2539 0.0456 0.9662
vn -0.0000 -0.9997 -0.0239
vn -0.0178 -0.9998 -0.0057
vn -0.0162 -0.9999 -0.0041
vn -0.0210 -0.9997 -0.0089
vn 0.3183 0.0310 0.9475
vn 0.3144 0.0500 0.9480
vn 0.3190 0.0274 0.9474
vn 0.2447 0.9694 0.0218
vn 0.2483 0.9686 0.0144
vn 0.2532 0.9674 0.0042
vn 0.4162 0.0099 -0.9092
vn 0.4163 0.0083 -0.9092
vn 0.4163 0.0080 -0.9092
vn 0.0004 -1.0000 -0.0027
vn 0.0003 -1.0000 -0.0046
vn -0.0000 -1.0000 -0.0054
vn 0.0081 0.9994 -0.0335
vn 0.0029 0.9987 -0.0507
vn 0.0100 0.9996 -0.0272
vn 0.3917 0.0085 -0.9201
vn 0.3905 0.0187 -0.9204
vn 0.3904 0.0196 -0.9204
vn 0.0039 0.9998 -0.0189
vn 0.0026 0.9998 -0.0218
vn 0.0061 0.9999 -0.0143
vn 0.0004 -1.0000 -0.0017
vn 0.0006 -1.0000 -0.0030
vn 0.9389 -0.0316 -0.3427
vn 0.9372 -0.0411 -0.3465
vn 0.9398 -0.0263 -0.3406
vn 0.3454 0.0145 -0.9383
vn 0.3490 -0.0145 -0.9370
vn 0.3493 -0.0175 -0.9368
vn -0.0000 0.9999 0.0128
vn -0.0000 -0.0000 1.0000
vn -0.9967 -0.0667 0.0467
vn -0.9848 -0.1468 0.0931
vn -0.9998 0.0184 -0.0026
vn -0.2993 -0.9541 0.0139
vn -0.2568 -0.9660 0.0299
vn -0.3236 -0.9462 0.0046
vn -0.9746 0.1622 0.1546
vn -0.9906 0.0174 0.1359
vn -0.9755 0.1653 0.1452
vn -0.0001 -1.0000 -0.0021
vn -0.0018 -1.0000 -0.0019
vn -0.0019 -1.0000 -0.0019
vn -0.9792 -0.1533 0.1332
vn -0.9928 -0.0238 0.1176
vn -0.9775 -0.1626 0.1343
vn -0.8510 -0.0752 0.5197
vn -0.8811 -0.1406 0.4516
vn -0.8082 -0.0022 0.5889
vn -0.2289 -0.9712 0.0657
vn -0.2134 -0.9747 0.0662
vn -0.2296 -0.9711 0.0657
vn -0.2265 0.4040 0.8863
vn -0.2310 0.3962 0.8886
vn -0.2203 0.4146 0.8829
vn -0.5419 0.0706 0.8375
vn -0.5406 0.0602 0.8391
vn -0.5430 0.0809 0.8358
vn -0.2398 -0.7067 0.6656
vn -0.2606 -0.7100 0.6542
vn -0.1497 -0.6885 0.7097
vn -0.8727 0.0566 0.4849
vn -0.8748 0.0691 0.4795
vn -0.8628 0.0065 0.5055
vn -0.2406 -0.4085 0.8805
vn -0.2340 -0.4182 0.8777
vn -0.2278 -0.4272 0.8750
vn -0.2350 0.9505 0.2033
vn -0.2791 0.9373 0.2088
vn -0.2331 0.9510 0.2030
vn -0.2745 0.6947 0.6649
vn -0.2769 0.6912 0.6675
vn -0.2280 0.7557 0.6139
vn -0.2644 0.9627 0.0574
vn -0.3427 0.9388 0.0360
vn -0.3667 0.9299 0.0292
vn -0.4637 0.1355 0.8756
vn -0.4478 0.1583 0.8800
vn -0.3858 0.2413 0.8905
vn -0.2990 -0.2416 0.9232
vn -0.4280 -0.1588 0.8897
vn -0.5215 -0.0914 0.8483
vn -0.5233 -0.1223 0.8433
vn -0.5211 -0.1180 0.8453
vn -0.5333 -0.1426 0.8338
vn -0.5635 0.7274 0.3916
vn -0.3473 -0.9356 0.0643
vn -0.3588 -0.9315 0.0589
vn -0.3384 -0.9385 0.0684
vn -0.9636 -0.1777 0.1997
vn -0.9640 -0.1766 0.1987
vn -0.9546 -0.2005 0.2202
vn -0.9539 0.1571 0.2557
vn -0.9578 0.1465 0.2473
vn -0.9567 0.1616 0.2421
vn -0.9624 0.2128 0.1689
vn -0.9648 0.1969 0.1743
vn -0.9576 0.2398 0.1596
vn -0.9581 -0.2144 0.1899
vn -0.9576 -0.2157 0.1912
vn -0.9525 -0.2272 0.2027
vn -0.3290 -0.9443 0.0096
vn -0.3333 -0.9428 0.0073
vn -0.3236 -0.9461 0.0125
vn 0.0251 -0.0778 -0.9967
vn 0.0224 -0.0658 -0.9976
vn 0.0217 -0.0708 -0.9973
vn -0.9727 0.2144 -0.0883
vn -0.9966 -0.0364 -0.0740
vn -0.9709 -0.2389 -0.0171
vn -0.9959 0.0183 -0.0887
vn -0.2281 0.9732 -0.0284
vn -0.2655 0.9639 -0.0217
vn -0.2245 0.9740 -0.0290
vn -0.2372 -0.9706 -0.0407
vn -0.3659 0.9278 -0.0736
vn -0.1023 0.9929 -0.0600
vn -0.1114 0.9920 -0.0593
vn -0.1016 0.9930 -0.0601
vn 0.0280 -0.0709 -0.9971
vn 0.0256 -0.0767 -0.9967
vn 0.0277 -0.0717 -0.9970
vn -0.0225 0.0656 0.9976
vn -0.0228 0.0595 0.9980
vn -0.0229 0.0581 0.9980
vn -0.0221 0.0573 0.9981
vn -0.0182 0.0523 0.9985
vn -0.0230 0.0584 0.9980
vn 0.3627 -0.9295 0.0668
vn 0.3169 -0.9459 0.0693
vn 0.3140 -0.9469 0.0694
vn -0.0413 0.0829 0.9957
vn -0.0210 0.0863 0.9961
vn -0.0471 0.0820 0.9955
vn -0.3360 0.9387 -0.0775
vn -0.3151 0.9458 -0.0786
vn -0.3376 0.9381 -0.0774
vn -0.4281 0.7443 0.5125
vn -0.2875 0.8472 0.4467
vn -0.4943 0.6818 0.5393
vn -0.3223 -0.9457 0.0417
vn -0.2762 -0.9591 0.0624
vn -0.3695 -0.9290 0.0199
vn -0.9771 -0.1574 0.1429
vn -0.9773 -0.1570 0.1425
vn -0.9787 -0.1523 0.1377
vn -0.9733 0.1442 0.1788
vn -0.9699 0.1559 0.1873
vn -0.9713 0.1401 0.1921
vn -0.9983 0.0552 -0.0166
vn -0.9997 0.0213 -0.0110
vn -0.9982 0.0575 -0.0170
vn 0.0050 -0.0650 -0.9979
vn 0.0060 -0.0617 -0.9981
vn 0.9642 -0.2495 0.0901
vn 0.9724 -0.2173 0.0852
vn 0.9730 -0.2147 0.0848
vn 0.9344 -0.3539 -0.0410
vn 0.2778 -0.9582 -0.0683
vn 0.2369 0.9693 -0.0659
vn 0.9550 0.2925 -0.0491
vn 0.0639 -0.9966 0.0514
vn 0.0573 -0.9970 0.0520
vn 0.0568 -0.9970 0.0521
vn -0.0032 0.0487 0.9988
vn -0.0961 0.9927 -0.0732
vn -0.1338 0.9886 -0.0687
vn -0.0913 0.9931 -0.0738
vn -0.9732 0.1469 0.1771
vn -0.9697 0.1596 0.1851
vn -0.9443 0.3252 -0.0498
vn -0.9770 0.1973 -0.0804
vn -0.9818 0.1689 -0.0869
vn -0.9507 0.2111 0.2274
vn -0.9521 0.1948 0.2359
vn -0.9477 0.2374 0.2134
vn -0.9539 0.1545 0.2574
vn -0.9578 0.1426 0.2496
vn -0.2510 0.1606 0.9546
vn -0.2624 0.1458 0.9539
vn -0.1677 0.2637 0.9499
vn -0.9232 0.0595 0.3798
vn -0.9254 0.0697 0.3725
vn -0.9090 0.0068 0.4166
vn -0.5241 0.0688 0.8489
vn -0.5202 0.0587 0.8520
vn -0.5277 0.0786 0.8458
vn -0.9799 0.1930 0.0497
vn -0.9734 0.2197 0.0645
vn -0.9672 0.2422 0.0770
vn -0.9750 0.1604 0.1539
vn -0.9903 0.0123 0.1381
vn -0.1867 0.9824 0.0038
vn -0.2077 0.9779 0.0253
vn -0.1613 0.9867 -0.0221
vn 0.0192 -0.9995 -0.0251
vn 0.0090 -0.9995 -0.0286
vn 0.0244 -0.9994 -0.0257
vn -0.2769 0.9605 0.0281
vn -0.2909 0.9565 0.0228
vn -0.2948 0.9553 0.0213
vn 0.0053 -0.9996 -0.0284
vn 0.0309 -0.9993 -0.0212
vn -0.7698 0.1372 0.6233
vn -0.7791 0.1265 0.6141
vn -0.7282 0.1824 0.6606
vn -0.6140 0.1231 -0.7796
vn -0.6141 0.1230 -0.7796
vn -0.5359 0.2030 -0.8195
vn -0.2596 -0.0034 0.9657
vn -0.2543 0.0423 0.9662
vn -0.2539 0.0456 0.9662
vn 0.0178 -0.9998 -0.0057
vn 0.0162 -0.9999 -0.0041
vn 0.0144 -0.9999 -0.0024
vn -0.3144 0.0500 0.9480
vn -0.3183 0.0310 0.9475
vn -0.3190 0.0274 0.9474
vn -0.2447 0.9694 0.0218
vn -0.2483 0.9686 0.0144
vn -0.2413 0.9700 0.0287
vn -0.4162 0.0099 -0.9092
vn -0.4163 0.0083 -0.9092
vn -0.4162 0.0100 -0.9092
vn -0.0004 -1.0000 -0.0027
vn -0.0003 -1.0000 -0.0046
vn -0.0006 -1.0000 -0.0030
vn -0.0029 0.9987 -0.0507
vn -0.0081 0.9994 -0.0335
vn -0.0100 0.9996 -0.0272
vn -0.3917 0.0085 -0.9201
vn -0.3905 0.0187 -0.9204
vn -0.3918 0.0076 -0.9200
vn -0.0026 0.9998 -0.0218
vn -0.0039 0.9998 -0.0189
vn -0.0061 0.9999 -0.0143
vn -0.0004 -1.0000 -0.0017
vn -0.0005 -1.0000 -0.0013
vn -0.9372 -0.0411 -0.3465
vn -0.9389 -0.0316 -0.3427
vn -0.9398 -0.0263 -0.3406
vn -0.3454 0.0145 -0.9383
vn -0.3490 -0.0145 -0.9370
vn -0.3450 0.0173 -0.9384
vn -0.0000 0.9987 0.0512
vn -0.1642 0.9846 -0.0599
vn 0.1436 0.9833 -0.1120
vn -0.1435 0.9832 -0.1130
vn 0.7732 0.6340 -0.0144
vn 0.1642 0.9846 -0.0599
vn 0.7409 0.6697 0.0520
vn 0.9530 0.1519 0.2622
vn 0.4837 0.2222 0.8466
vn 0.4310 0.5547 0.7117
vn -0.4837 0.2222 0.8466
vn 0.9406 0.1649 0.2966
vn -0.3695 0.6297 0.6833
vn 0.3695 0.6297 0.6833
vn 0.1753 0.8971 0.4055
vn -0.1753 0.8971 0.4055
vn 0.6766 0.5816 0.4516
vn 0.0810 0.9944 0.0673
vn -0.0811 0.9944 0.0673
vn -0.7409 0.6697 0.0520
vn -0.7732 0.6340 -0.0144
vn -0.9530 0.1519 0.2622
vn -0.4338 0.5447 0.7177
vn -0.9406 0.1649 0.2966
vn -0.6766 0.5816 0.4516
vn 0.9630 -0.2297 0.1410
vn 0.2372 -0.9707 0.0372
vn 0.9755 0.1653 0.1452
vn 0.0019 -1.0000 -0.0019
vn 0.9775 -0.1626 0.1343
vn 0.9119 -0.2469 0.3277
vn 0.2296 -0.9711 0.0657
vn 0.2203 0.4146 0.8829
vn 0.5430 0.0809 0.8358
vn 0.1497 -0.6885 0.7097
vn 0.8628 0.0065 0.5055
vn 0.2506 -0.3936 0.8845
vn -0.0000 -0.0588 -0.9983
vn -0.0000 0.0001 -1.0000
vn -0.0055 -0.0600 -0.9982
vn 0.2331 0.9510 0.2030
vn 0.2280 0.7557 0.6139
vn 0.3667 0.9299 0.0292
vn 0.3858 0.2413 0.8905
vn 0.1913 -0.3031 0.9336
vn 0.5061 -0.0886 0.8579
vn 0.3384 -0.9385 0.0684
vn 0.9546 -0.2005 0.2202
vn 0.9567 0.1616 0.2421
vn 0.9576 0.2398 0.1596
vn 0.9525 -0.2272 0.2027
vn 0.3236 -0.9461 0.0125
vn -0.0229 -0.0637 -0.9977
vn 0.9959 0.0183 -0.0887
vn 0.2714 0.9622 -0.0206
vn 0.1016 0.9930 -0.0601
vn 0.0229 0.0581 0.9980
vn 0.0167 0.0503 0.9986
vn -0.3660 -0.9282 0.0666
vn 0.0113 0.0879 0.9961
vn 0.3376 0.9381 -0.0774
vn 0.4943 0.6818 0.5393
vn 0.3695 -0.9290 0.0199
vn 0.9787 -0.1523 0.1377
vn 0.9713 0.1401 0.1921
vn 0.9998 0.0186 -0.0105
vn -0.0043 -0.0667 -0.9978
vn -0.9634 -0.2522 0.0906
vn -0.0646 -0.9966 0.0514
vn -0.0087 0.0626 0.9980
vn -0.0000 0.0595 0.9982
vn 0.0913 0.9931 -0.0738
vn 0.9343 0.3539 -0.0426
vn 0.9477 0.2374 0.2134
vn 0.1677 0.2637 0.9499
vn 0.9090 0.0068 0.4166
vn 0.5277 0.0786 0.8458
vn 0.9672 0.2422 0.0770
vn 0.2526 0.9649 0.0720
vn -0.0210 -0.9996 -0.0213
vn 0.2948 0.9553 0.0213
vn 0.8229 0.0708 0.5638
vn 0.5359 0.2030 -0.8195
vn 0.2601 -0.0073 0.9656
vn -0.0144 -0.9999 -0.0024
vn 0.3131 0.0562 0.9481
vn 0.2413 0.9700 0.0287
vn 0.4162 0.0100 -0.9092
vn -0.0000 0.9982 -0.0600
vn 0.3918 0.0076 -0.9200
vn -0.0000 0.9996 -0.0274
vn 0.0005 -1.0000 -0.0013
vn 0.9360 -0.0469 -0.3487
vn 0.3450 0.0173 -0.9384
vn -0.9630 -0.2297 0.1410
vn -0.2372 -0.9707 0.0372
vn -0.9934 -0.0027 0.1148
vn -0.9119 -0.2469 0.3277
vn -0.2120 -0.9750 0.0662
vn -0.2408 0.3788 0.8936
vn -0.5388 0.0457 0.8412
vn -0.3897 -0.7209 0.5731
vn -0.8826 0.1310 0.4515
vn -0.2506 -0.3936 0.8845
vn -0.2825 0.9362 0.2092
vn -0.3266 0.6146 0.7181
vn -0.2361 0.9696 0.0649
vn -0.5232 0.0443 0.8511
vn -0.1913 -0.3031 0.9336
vn -0.5060 -0.0886 0.8579
vn -0.3690 -0.9278 0.0540
vn -0.9727 -0.1513 0.1758
vn -0.9689 0.1637 0.1854
vn -0.9631 -0.2023 0.1777
vn -0.3392 -0.9407 0.0040
vn 0.0229 -0.0637 -0.9977
vn -0.9561 -0.2929 -0.0012
vn -0.2714 0.9622 -0.0206
vn -0.1124 0.9919 -0.0592
vn -0.0223 0.0674 0.9975
vn -0.0167 0.0503 0.9986
vn 0.3660 -0.9282 0.0666
vn -0.0113 0.0879 0.9961
vn -0.3138 0.9462 -0.0787
vn -0.1993 0.8944 0.4003
vn -0.2293 -0.9698 0.0830
vn -0.9756 -0.1623 0.1478
vn -0.9998 0.0186 -0.0105
vn 0.0043 -0.0667 -0.9978
vn 0.9634 -0.2522 0.0906
vn 0.0646 -0.9966 0.0514
vn -0.0029 0.0501 0.9987
vn -0.1372 0.9882 -0.0683
vn -0.9715 0.1646 0.1705
vn -0.9343 0.3539 -0.0426
vn -0.9539 0.1611 0.2531
vn -0.9547 0.1377 0.2638
vn -0.3476 0.0296 0.9372
vn -0.9369 0.1390 0.3207
vn -0.5144 0.0435 0.8565
vn -0.9849 0.1694 0.0367
vn -0.9886 0.0074 0.1504
vn -0.2526 0.9649 0.0720
vn 0.0210 -0.9996 -0.0213
vn -0.2713 0.9620 0.0302
vn -0.8229 0.0708 0.5638
vn -0.7024 0.0169 -0.7116
vn -0.2601 -0.0073 0.9656
vn 0.0210 -0.9997 -0.0089
vn -0.3131 0.0562 0.9481
vn -0.2532 0.9674 0.0042
vn -0.4163 0.0080 -0.9092
vn -0.3904 0.0196 -0.9204
vn -0.9360 -0.0469 -0.3487
vn -0.3493 -0.0175 -0.9368
vt 0.250000 0.500000
vt 0.750000 0.500000
s 1
usemtl spaceship
f 6/1/1 3/1/2 5/1/3
f 16/1/4 1/1/5 15/1/6
f 128/1/7 16/1/7 15/1/7
f 91/1/8 11/1/9 84/1/10
f 5/1/11 98/1/12 95/1/13
f 53/1/14 9/1/15 10/1/16
f 139/1/17 21/1/17 26/1/17
f 9/1/18 12/1/19 10/1/20
f 150/1/21 15/1/21 37/1/21
f 51/1/22 10/1/23 19/1/24
f 13/1/25 27/1/26 25/1/27
f 85/1/28 25/1/29 86/1/30
f 19/1/31 12/1/32 21/1/33
f 84/1/34 13/1/35 85/1/36
f 133/1/37 52/1/37 165/1/37
f 12/1/38 26/1/39 21/1/40
f 139/1/41 28/1/41 141/1/41
f 169/1/42 81/1/43 38/1/44
f 50/1/45 20/1/46 11/1/47
f 11/1/48 22/1/49 13/1/50
f 2/1/51 14/1/52 17/1/53
f 21/1/54 132/1/54 19/1/54
f 141/1/55 87/1/55 200/1/55
f 140/1/56 22/1/56 135/1/56
f 86/1/57 28/1/58 23/1/59
f 28/1/60 24/1/61 23/1/62
f 164/1/63 32/1/64 51/1/63
f 7/1/65 24/1/66 12/1/67
f 31/1/68 36/1/68 33/1/68
f 37/1/69 30/1/70 32/1/71
f 34/1/72 29/1/73 30/1/74
f 89/1/75 31/1/76 88/1/77
f 83/1/78 36/1/79 89/1/80
f 1/1/81 35/1/82 34/1/83
f 15/1/84 34/1/85 37/1/86
f 135/1/87 20/1/87 133/1/87
f 192/1/88 77/1/89 79/1/90
f 171/1/91 66/1/91 58/1/91
f 38/1/92 54/1/93 8/1/94
f 8/1/95 42/1/95 4/1/95
f 5/1/96 40/1/97 39/1/98
f 82/1/99 99/1/100 90/1/101
f 16/1/102 40/1/102 3/1/102
f 190/1/103 76/1/103 77/1/103
f 43/1/104 41/1/104 44/1/104
f 76/1/105 44/1/106 77/1/107
f 44/1/108 55/1/109 57/1/108
f 14/1/110 46/1/111 45/1/112
f 43/1/113 48/1/114 42/1/115
f 47/1/116 55/1/117 48/1/118
f 191/1/119 76/1/120 189/1/121
f 165/1/122 33/1/122 146/1/122
f 42/1/123 46/1/124 4/1/125
f 54/1/126 45/1/127 46/1/128
f 31/1/129 52/1/130 50/1/131
f 145/1/64 37/1/132 32/1/64
f 32/1/133 53/1/134 51/1/135
f 132/1/136 51/1/136 19/1/136
f 30/1/137 49/1/138 53/1/139
f 88/1/140 50/1/141 91/1/142
f 78/1/143 81/1/144 79/1/145
f 44/1/146 79/1/90 77/1/89
f 176/1/147 62/1/147 63/1/147
f 41/1/148 54/1/93 55/1/109
f 54/1/149 48/1/150 55/1/151
f 93/1/152 60/1/152 92/1/152
f 175/1/153 171/1/153 92/1/153
f 67/1/154 58/1/154 66/1/154
f 65/1/155 62/1/155 61/1/155
f 179/1/153 38/1/153 66/1/153
f 8/1/153 66/1/153 38/1/153
f 39/1/153 65/1/153 64/1/153
f 18/1/153 65/1/153 40/1/153
f 176/1/153 18/1/153 131/1/153
f 90/1/153 64/1/153 93/1/153
f 64/1/156 61/1/156 60/1/156
f 194/1/157 79/1/90 81/1/157
f 129/1/158 18/1/158 16/1/158
f 78/1/159 57/1/160 47/1/161
f 43/1/162 78/1/163 47/1/164
f 193/1/165 127/1/166 45/1/167
f 56/1/168 80/1/169 45/1/170
f 193/1/171 78/1/171 191/1/171
f 200/1/55 27/1/55 140/1/55
f 90/1/153 67/1/153 8/1/153
f 93/1/152 59/1/152 67/1/152
f 29/1/172 91/1/142 49/1/173
f 82/1/174 8/1/175 4/1/176
f 6/1/177 89/1/178 35/1/179
f 35/1/180 88/1/77 29/1/181
f 25/1/182 87/1/183 86/1/184
f 9/1/185 85/1/186 7/1/187
f 7/1/188 86/1/189 23/1/190
f 4/1/191 83/1/192 82/1/193
f 49/1/194 84/1/10 9/1/195
f 94/1/196 105/1/197 99/1/198
f 95/1/199 103/1/200 97/1/201
f 82/1/202 96/1/203 94/1/204
f 5/1/205 97/1/201 6/1/206
f 6/1/207 96/1/208 83/1/209
f 39/1/210 99/1/211 98/1/212
f 103/1/213 106/1/214 102/1/215
f 103/1/216 101/1/216 107/1/216
f 95/1/217 104/1/218 101/1/219
f 97/1/220 102/1/221 96/1/222
f 94/1/223 102/1/224 100/1/225
f 98/1/226 105/1/227 104/1/228
f 107/1/229 112/1/230 111/1/231
f 106/1/232 113/1/233 109/1/234
f 104/1/235 109/1/236 108/1/237
f 100/1/238 109/1/239 105/1/240
f 101/1/241 108/1/242 107/1/229
f 111/1/243 113/1/244 110/1/245
f 108/1/246 113/1/247 112/1/248
f 100/1/249 102/1/249 106/1/249
f 106/1/250 111/1/250 110/1/250
f 116/1/251 119/1/252 118/1/253
f 114/1/254 129/1/255 128/1/256
f 204/1/257 124/1/258 163/1/259
f 118/1/260 211/1/261 152/1/262
f 166/1/263 122/1/264 162/1/265
f 125/1/266 122/1/267 123/1/268
f 164/1/269 123/1/270 166/1/271
f 126/1/272 140/1/273 135/1/274
f 198/1/275 138/1/276 126/1/277
f 132/1/278 125/1/279 123/1/280
f 197/1/281 126/1/282 124/1/283
f 139/1/284 125/1/285 134/1/286
f 163/1/287 133/1/288 165/1/289
f 124/1/290 135/1/291 133/1/292
f 115/1/293 127/1/294 117/1/295
f 199/1/296 141/1/297 200/1/298
f 137/1/299 141/1/300 136/1/301
f 137/1/302 120/1/303 125/1/304
f 144/1/305 146/1/305 149/1/305
f 150/1/306 143/1/307 147/1/308
f 147/1/309 142/1/310 148/1/311
f 202/1/312 144/1/313 149/1/314
f 196/1/315 149/1/316 115/1/317
f 114/1/318 148/1/319 119/1/320
f 128/1/321 147/1/322 114/1/323
f 167/1/324 151/1/325 121/1/326
f 155/1/327 121/1/327 117/1/327
f 118/1/328 153/1/329 116/1/330
f 212/1/331 195/1/332 203/1/333
f 153/1/334 129/1/334 116/1/334
f 156/1/335 154/1/335 155/1/335
f 189/1/336 157/1/337 156/1/338
f 157/1/339 168/1/340 154/1/341
f 127/1/342 159/1/343 117/1/344
f 161/1/345 156/1/346 155/1/347
f 168/1/348 160/1/349 161/1/350
f 159/1/351 155/1/352 117/1/353
f 167/1/354 158/1/355 169/1/356
f 144/1/357 165/1/358 146/1/359
f 145/1/360 166/1/361 143/1/362
f 143/1/363 162/1/364 142/1/365
f 201/1/366 163/1/367 144/1/368
f 194/1/369 191/1/370 192/1/371
f 192/1/88 157/1/372 190/1/373
f 154/1/341 167/1/324 121/1/326
f 161/1/374 167/1/375 168/1/376
f 206/1/377 173/1/377 177/1/377
f 171/1/378 180/1/378 179/1/378
f 178/1/379 175/1/379 176/1/379
f 179/1/153 121/1/153 151/1/153
f 152/1/153 178/1/153 153/1/153
f 178/1/153 131/1/153 153/1/153
f 203/1/153 177/1/153 152/1/153
f 177/1/380 174/1/380 178/1/380
f 170/1/381 191/1/382 160/1/383
f 156/1/384 191/1/119 189/1/121
f 169/1/385 193/1/386 194/1/387
f 180/1/153 203/1/153 121/1/153
f 172/1/377 206/1/377 180/1/377
f 142/1/388 204/1/389 201/1/366
f 121/1/390 195/1/391 117/1/392
f 119/1/393 202/1/394 196/1/395
f 148/1/396 201/1/397 202/1/312
f 138/1/398 200/1/399 140/1/400
f 122/1/401 198/1/402 197/1/403
f 120/1/404 199/1/405 198/1/406
f 117/1/407 196/1/408 115/1/409
f 162/1/410 197/1/411 204/1/257
f 218/1/412 207/1/413 212/1/414
f 216/1/415 208/1/416 210/1/417
f 195/1/418 209/1/419 196/1/420
f 210/1/417 118/1/421 119/1/422
f 209/1/423 119/1/424 196/1/425
f 152/1/426 212/1/427 203/1/428
f 219/1/429 216/1/430 215/1/431
f 216/1/216 220/1/216 214/1/216
f 208/1/432 217/1/433 211/1/434
f 215/1/435 210/1/436 209/1/437
f 207/1/438 215/1/439 209/1/440
f 211/1/441 218/1/442 212/1/443
f 220/1/444 225/1/445 221/1/446
f 226/1/447 219/1/448 222/1/449
f 217/1/450 222/1/451 218/1/452
f 222/1/453 213/1/454 218/1/455
f 214/1/456 221/1/446 217/1/457
f 226/1/458 224/1/459 223/1/460
f 221/1/461 226/1/462 222/1/463
f 213/1/249 219/1/249 215/1/249
f 219/1/250 224/1/250 220/1/250
f 17/1/464 127/1/464 130/1/464
f 181/2/465 17/2/466 130/2/467
f 2/2/468 68/2/469 69/2/470
f 36/2/471 71/2/472 33/2/473
f 184/2/474 33/2/473 71/2/472
f 2/2/468 72/2/475 36/2/471
f 186/2/476 71/2/472 73/2/477
f 186/2/476 75/2/478 188/2/479
f 72/2/475 73/2/477 71/2/472
f 70/2/480 75/2/478 73/2/477
f 69/2/470 68/2/469 74/2/481
f 72/2/475 69/2/470 70/2/480
f 68/2/469 187/2/482 74/2/481
f 188/2/479 74/2/481 187/2/482
f 188/2/479 187/2/482 182/2/483
f 70/2/480 69/2/470 75/2/478
f 115/2/484 181/2/465 130/2/467
f 184/2/474 149/2/485 146/2/486
f 185/2/487 115/2/484 149/2/485
f 186/2/476 185/2/487 184/2/474
f 186/2/476 188/2/479 183/2/488
f 182/2/483 187/2/482 181/2/465
f 185/2/487 183/2/488 182/2/483
f 69/2/470 74/2/481 75/2/478
f 183/2/488 188/2/479 182/2/483
f 6/1/1 1/1/489 3/1/2
f 16/1/4 3/1/490 1/1/5
f 128/1/7 129/1/7 16/1/7
f 91/1/8 50/1/491 11/1/9
f 5/1/11 39/1/492 98/1/12
f 53/1/14 49/1/493 9/1/15
f 139/1/17 134/1/17 21/1/17
f 9/1/18 7/1/494 12/1/19
f 150/1/21 128/1/21 15/1/21
f 51/1/22 53/1/495 10/1/23
f 13/1/25 22/1/496 27/1/26
f 85/1/28 13/1/497 25/1/29
f 19/1/31 10/1/498 12/1/32
f 84/1/34 11/1/499 13/1/35
f 133/1/37 20/1/37 52/1/37
f 12/1/38 24/1/500 26/1/39
f 139/1/41 26/1/41 28/1/41
f 38/1/44 151/1/501 169/1/42
f 169/1/42 194/1/502 81/1/43
f 81/1/43 56/1/503 38/1/44
f 50/1/45 52/1/504 20/1/46
f 11/1/48 20/1/505 22/1/49
f 2/1/51 4/1/506 14/1/52
f 21/1/54 134/1/54 132/1/54
f 141/1/55 28/1/55 87/1/55
f 140/1/56 27/1/56 22/1/56
f 86/1/57 87/1/507 28/1/58
f 28/1/60 26/1/508 24/1/61
f 164/1/63 145/1/64 32/1/64
f 7/1/65 23/1/509 24/1/66
f 37/1/69 34/1/510 30/1/70
f 34/1/72 35/1/511 29/1/73
f 89/1/75 36/1/512 31/1/76
f 83/1/78 2/1/513 36/1/79
f 1/1/81 6/1/514 35/1/82
f 15/1/84 1/1/515 34/1/85
f 135/1/87 22/1/87 20/1/87
f 192/1/88 190/1/373 77/1/89
f 171/1/91 179/1/91 66/1/91
f 38/1/92 56/1/516 54/1/93
f 8/1/95 41/1/95 42/1/95
f 5/1/96 3/1/517 40/1/97
f 82/1/99 94/1/518 99/1/100
f 16/1/102 18/1/102 40/1/102
f 190/1/103 189/1/103 76/1/103
f 43/1/104 42/1/104 41/1/104
f 76/1/105 43/1/519 44/1/106
f 44/1/108 41/1/148 55/1/109
f 14/1/110 4/1/520 46/1/111
f 43/1/113 47/1/521 48/1/114
f 47/1/116 57/1/522 55/1/117
f 191/1/119 78/1/163 76/1/120
f 165/1/122 52/1/122 33/1/122
f 42/1/123 48/1/523 46/1/124
f 54/1/126 56/1/524 45/1/127
f 31/1/129 33/1/525 52/1/130
f 145/1/64 150/1/132 37/1/132
f 32/1/133 30/1/526 53/1/134
f 132/1/136 164/1/136 51/1/136
f 30/1/137 29/1/527 49/1/138
f 88/1/140 31/1/528 50/1/141
f 78/1/143 80/1/529 81/1/144
f 44/1/146 57/1/530 79/1/90
f 176/1/147 175/1/147 62/1/147
f 41/1/148 8/1/94 54/1/93
f 54/1/149 46/1/531 48/1/150
f 93/1/152 64/1/152 60/1/152
f 61/1/153 62/1/153 175/1/153
f 175/1/153 174/1/153 173/1/153
f 205/1/153 172/1/153 171/1/153
f 175/1/153 173/1/153 205/1/153
f 60/1/153 61/1/153 175/1/153
f 58/1/153 59/1/153 92/1/153
f 92/1/153 60/1/153 175/1/153
f 175/1/153 205/1/153 171/1/153
f 171/1/153 58/1/153 92/1/153
f 67/1/154 59/1/154 58/1/154
f 65/1/155 63/1/155 62/1/155
f 179/1/153 151/1/153 38/1/153
f 8/1/153 67/1/153 66/1/153
f 39/1/153 40/1/153 65/1/153
f 18/1/153 63/1/153 65/1/153
f 176/1/153 63/1/153 18/1/153
f 90/1/153 39/1/153 64/1/153
f 64/1/156 65/1/156 61/1/156
f 194/1/157 192/1/88 79/1/90
f 129/1/158 131/1/158 18/1/158
f 78/1/159 79/1/532 57/1/160
f 43/1/162 76/1/120 78/1/163
f 45/1/167 80/1/250 193/1/165
f 193/1/165 158/1/533 127/1/166
f 127/1/166 14/1/534 45/1/167
f 56/1/168 81/1/535 80/1/169
f 193/1/171 80/1/171 78/1/171
f 200/1/55 87/1/55 27/1/55
f 90/1/153 93/1/153 67/1/153
f 93/1/152 92/1/152 59/1/152
f 29/1/172 88/1/140 91/1/142
f 82/1/174 90/1/536 8/1/175
f 6/1/177 83/1/537 89/1/178
f 35/1/180 89/1/75 88/1/77
f 25/1/182 27/1/538 87/1/183
f 9/1/185 84/1/539 85/1/186
f 7/1/188 85/1/540 86/1/189
f 4/1/191 2/1/541 83/1/192
f 49/1/194 91/1/8 84/1/10
f 94/1/196 100/1/542 105/1/197
f 95/1/199 101/1/543 103/1/200
f 82/1/202 83/1/544 96/1/203
f 5/1/205 95/1/199 97/1/201
f 6/1/207 97/1/545 96/1/208
f 39/1/210 90/1/546 99/1/211
f 103/1/213 107/1/547 106/1/214
f 95/1/217 98/1/548 104/1/218
f 97/1/220 103/1/549 102/1/221
f 94/1/223 96/1/550 102/1/224
f 98/1/226 99/1/551 105/1/227
f 107/1/229 108/1/242 112/1/230
f 106/1/232 110/1/552 113/1/233
f 104/1/235 105/1/553 109/1/236
f 100/1/238 106/1/554 109/1/239
f 101/1/241 104/1/555 108/1/242
f 111/1/243 112/1/556 113/1/244
f 108/1/246 109/1/557 113/1/247
f 106/1/250 107/1/250 111/1/250
f 116/1/251 114/1/558 119/1/252
f 114/1/254 116/1/559 129/1/255
f 204/1/257 197/1/411 124/1/258
f 118/1/260 208/1/13 211/1/261
f 166/1/263 123/1/560 122/1/264
f 125/1/266 120/1/561 122/1/267
f 164/1/269 132/1/562 123/1/270
f 126/1/272 138/1/563 140/1/273
f 198/1/275 199/1/564 138/1/276
f 132/1/278 134/1/565 125/1/279
f 197/1/281 198/1/566 126/1/282
f 139/1/284 137/1/567 125/1/285
f 163/1/287 124/1/568 133/1/288
f 124/1/290 126/1/569 135/1/291
f 115/1/293 130/1/570 127/1/294
f 199/1/296 136/1/571 141/1/297
f 137/1/299 139/1/572 141/1/300
f 137/1/302 136/1/573 120/1/303
f 150/1/306 145/1/574 143/1/307
f 147/1/309 143/1/575 142/1/310
f 202/1/312 201/1/397 144/1/313
f 196/1/315 202/1/576 149/1/316
f 114/1/318 147/1/577 148/1/319
f 128/1/321 150/1/578 147/1/322
f 167/1/324 169/1/579 151/1/325
f 155/1/327 154/1/327 121/1/327
f 118/1/328 152/1/580 153/1/329
f 212/1/331 207/1/581 195/1/332
f 153/1/334 131/1/334 129/1/334
f 156/1/335 157/1/335 154/1/335
f 189/1/336 190/1/582 157/1/337
f 157/1/339 170/1/339 168/1/340
f 127/1/342 158/1/583 159/1/343
f 161/1/345 160/1/584 156/1/346
f 168/1/348 170/1/585 160/1/349
f 159/1/351 161/1/586 155/1/352
f 167/1/354 159/1/587 158/1/355
f 144/1/357 163/1/588 165/1/358
f 145/1/360 164/1/589 166/1/361
f 143/1/363 166/1/590 162/1/364
f 201/1/366 204/1/389 163/1/367
f 194/1/369 193/1/591 191/1/370
f 192/1/88 170/1/592 157/1/372
f 154/1/341 168/1/340 167/1/324
f 161/1/374 159/1/593 167/1/375
f 206/1/377 205/1/377 173/1/377
f 171/1/378 172/1/378 180/1/378
f 178/1/379 174/1/379 175/1/379
f 179/1/153 180/1/153 121/1/153
f 152/1/153 177/1/153 178/1/153
f 178/1/153 176/1/153 131/1/153
f 203/1/153 206/1/153 177/1/153
f 177/1/380 173/1/380 174/1/380
f 170/1/381 192/1/594 191/1/382
f 156/1/384 160/1/595 191/1/119
f 169/1/385 158/1/596 193/1/386
f 180/1/153 206/1/153 203/1/153
f 172/1/377 205/1/377 206/1/377
f 142/1/388 162/1/597 204/1/389
f 121/1/390 203/1/598 195/1/391
f 119/1/393 148/1/599 202/1/394
f 148/1/396 142/1/600 201/1/397
f 138/1/398 199/1/601 200/1/399
f 122/1/401 120/1/602 198/1/402
f 120/1/404 136/1/603 199/1/405
f 117/1/407 195/1/604 196/1/408
f 162/1/410 122/1/605 197/1/411
f 218/1/412 213/1/606 207/1/413
f 216/1/415 214/1/607 208/1/416
f 195/1/418 207/1/608 209/1/419
f 210/1/417 208/1/416 118/1/421
f 209/1/423 210/1/609 119/1/424
f 152/1/426 211/1/610 212/1/427
f 219/1/429 220/1/611 216/1/430
f 208/1/432 214/1/612 217/1/433
f 215/1/435 216/1/613 210/1/436
f 207/1/438 213/1/614 215/1/439
f 211/1/441 217/1/615 218/1/442
f 220/1/444 224/1/231 225/1/445
f 226/1/447 223/1/552 219/1/448
f 217/1/450 221/1/616 222/1/451
f 222/1/453 219/1/554 213/1/454
f 214/1/456 220/1/444 221/1/446
f 226/1/458 225/1/617 224/1/459
f 221/1/461 225/1/618 226/1/462
f 219/1/250 223/1/250 224/1/250
f 17/1/464 14/1/464 127/1/464
f 181/2/465 68/2/469 17/2/466
f 2/2/468 17/2/466 68/2/469
f 36/2/471 72/2/475 71/2/472
f 184/2/474 146/2/486 33/2/473
f 2/2/468 69/2/470 72/2/475
f 186/2/476 184/2/474 71/2/472
f 186/2/476 73/2/477 75/2/478
f 72/2/475 70/2/480 73/2/477
f 68/2/469 181/2/465 187/2/482
f 188/2/479 75/2/478 74/2/481
f 115/2/484 182/2/483 181/2/465
f 184/2/474 185/2/487 149/2/485
f 185/2/487 182/2/483 115/2/484
f 186/2/476 183/2/488 185/2/487
