# Blender 4.4.1
# www.blender.org
mtllib boulder.mtl
o boulder
v -0.541125 1.173138 0.218008
v -0.436454 1.297556 -0.017114
v -0.294525 1.183599 -0.460919
v -0.275473 0.895204 -0.641255
v -0.282221 0.808172 -0.661034
v -0.305090 0.695072 -0.647653
v -0.312775 1.242735 -0.384184
v -0.352769 1.282274 -0.255839
v -0.582492 1.069791 0.286975
v -0.648867 0.796395 0.350071
v 0.014676 1.301980 -0.405130
v -0.141698 1.307698 -0.353964
v -0.332800 1.319731 -0.178393
v 0.122090 1.300965 -0.374994
v 0.359413 1.305271 -0.161625
v -0.357770 1.333797 0.124571
v -0.394959 1.328654 -0.009014
v 0.008532 0.625227 -0.700899
v 0.150131 1.274009 -0.393829
v -0.079435 1.115422 -0.604291
v -0.088344 1.077001 -0.622839
v -0.056979 0.768967 -0.700155
v -0.036254 1.162923 -0.559018
v -0.558398 0.723725 0.529917
v -0.552362 1.112309 0.311957
v -0.574214 0.770548 0.498203
v 0.066874 1.315354 0.401036
v 0.227391 1.100822 0.575350
v -0.517721 0.692885 0.560775
v -0.523494 1.174712 0.286146
v -0.459642 1.226272 0.277997
v -0.188266 1.338084 0.304114
v 0.027349 1.336555 0.376014
v 0.164779 0.851695 0.695735
v 0.234584 1.062597 0.599356
v -0.315568 0.040794 0.054859
v 0.065764 0.082991 0.384925
v 0.013870 0.020704 0.270398
v -0.459170 0.538014 0.562232
v -0.617525 0.585449 0.413861
v -0.660350 0.675139 0.328285
v -0.454683 0.132547 -0.027915
v -0.578131 0.492235 0.419113
v -0.441923 0.113851 0.052641
v 0.001717 0.616769 -0.698940
v -0.232825 0.503921 -0.645855
v 0.013457 0.620099 -0.699128
v 0.156081 0.117287 0.400879
v 0.302531 0.089999 0.221626
v -0.272537 0.046724 -0.163058
v -0.373175 0.460310 -0.562736
v -0.436198 0.138432 -0.145215
v -0.524122 0.268887 -0.228967
v -0.502677 0.223056 -0.192429
v -0.297782 0.442210 -0.598716
v -0.265650 0.047952 -0.169658
v -0.280324 0.023433 0.034068
v 0.264164 0.004459 0.028441
v -0.271270 0.045807 -0.161727
v 0.200562 0.000896 0.078950
v -0.082440 0.000000 0.174666
v -0.201327 0.012547 0.103404
v 0.256236 0.003163 0.042084
v -0.263145 0.046125 -0.166995
v 0.264143 0.004491 0.028176
v 0.287645 0.304065 0.512873
v 0.422075 1.274668 0.074381
v 0.236757 1.285785 0.371531
v 0.329745 1.319187 0.135677
v 0.511169 1.145696 0.206652
v 0.348361 1.168433 0.438843
v 0.314246 1.192499 0.444542
v 0.236795 1.327598 0.278411
v 0.372066 1.302384 -0.155246
v 0.423506 1.275124 0.065299
v 0.371264 1.305890 -0.141904
v 0.411135 1.238294 -0.224042
v 0.561587 1.105915 0.134277
v 0.383752 1.310808 -0.025533
v 0.162580 0.822997 0.698454
v 0.145880 0.831571 0.700899
v -0.358968 0.647212 0.638929
v -0.383531 0.524832 0.601170
v 0.063829 0.177251 0.499554
v 0.167016 0.210791 0.510952
v 0.170698 0.214505 0.512129
v 0.239837 0.443265 0.582962
v 0.521871 0.235545 -0.132220
v 0.517881 0.234584 -0.144280
v 0.660350 0.949593 -0.008626
v 0.614543 0.981125 -0.165504
v 0.533286 0.206146 0.080970
v 0.562183 0.239143 0.023573
v 0.492614 0.212269 0.192729
v 0.482281 0.236899 0.234714
v 0.619177 0.531029 0.043987
v 0.571390 0.260615 0.011739
v 0.330668 0.526655 -0.508876
v 0.494664 0.338979 -0.262098
v 0.496359 0.600419 -0.370066
vn 0.3221 0.9202 -0.2224
vn 0.5800 0.7431 0.3339
vn -0.3221 -0.9202 0.2225
vn -0.9208 -0.3860 0.0563
vn 0.9165 -0.2031 0.3447
vn -0.1277 0.2292 -0.9650
vn -0.4587 -0.1816 -0.8698
vn -0.3858 0.8561 0.3438
vn -0.6112 0.7790 0.1401
vn -0.5506 0.7983 -0.2441
vn -0.2749 0.8914 -0.3603
vn -0.3804 0.4721 -0.7952
vn -0.1774 0.7587 -0.6269
vn 0.2008 0.6928 -0.6926
vn 0.2008 0.6928 -0.6925
vn 0.0618 -0.2722 -0.9602
vn 0.1839 0.0787 0.9798
vn -0.4744 -0.1712 0.8635
vn -0.8516 0.4805 0.2093
vn -0.8265 0.3092 0.4705
vn -0.8928 0.0036 0.4505
vn -0.0367 -0.9926 -0.1156
vn -0.0358 -0.9927 -0.1151
vn -0.4432 -0.6764 -0.5883
vn -0.7355 -0.6609 -0.1491
vn -0.7006 -0.2586 0.6651
vn -0.1839 -0.0787 -0.9798
vn 0.0561 -0.9860 0.1568
vn 0.1774 -0.7587 0.6269
vn -0.9302 0.1484 -0.3356
vn -0.4953 -0.8602 -0.1212
vn -0.2241 -0.8891 -0.3992
vn -0.2240 -0.8891 -0.3992
vn 0.2749 -0.8914 0.3603
vn -0.0104 -0.2929 0.9561
vn -0.0103 -0.2929 0.9561
vn 0.4886 0.5281 0.6945
vn 0.2386 0.7137 0.6586
vn 0.2241 0.8890 0.3993
vn 0.0219 0.9988 -0.0446
vn 0.4953 0.8602 0.1212
vn 0.4953 0.8603 0.1212
vn 0.7355 0.6609 0.1491
vn 0.4182 0.7708 -0.4806
vn 0.4181 0.7708 -0.4806
vn 0.2685 -0.3581 0.8943
vn -0.4178 -0.7052 0.5728
vn -0.2756 0.4735 0.8366
vn 0.8184 -0.0083 0.5746
vn 0.7916 0.6010 -0.1103
vn 0.6867 -0.2813 -0.6703
vn 0.8517 -0.4805 -0.2093
vn 0.6104 -0.7793 -0.1416
vn 0.6112 -0.7790 -0.1402
vn 0.6112 -0.7790 -0.1401
vn 0.5156 -0.6776 0.5244
vn 0.5157 -0.6776 0.5244
vn 0.5506 -0.7983 0.2441
vn 0.9443 -0.1309 -0.3020
vn 0.1922 -0.7154 -0.6718
vn 0.5515 0.2555 -0.7941
vn 0.9165 -0.2030 0.3447
vn -0.6112 0.7790 0.1402
vn -0.8927 0.0036 0.4505
vn -0.0388 -0.9924 -0.1168
vn -0.4953 -0.8603 -0.1212
vn -0.2241 -0.8890 -0.3992
vn -0.0101 -0.2930 0.9561
vn 0.0219 0.9988 -0.0445
vn 0.4952 0.8603 0.1212
vn 0.4182 0.7707 -0.4807
vn -0.4178 -0.7052 0.5729
vn -0.2756 0.4735 0.8365
vn 0.7916 0.6010 -0.1104
vn 0.6100 -0.7795 -0.1424
vn 0.6114 -0.7788 -0.1402
vn 0.5157 -0.6775 0.5244
vn 0.9442 -0.1313 -0.3019
vn 0.9443 -0.1308 -0.3020
vn 0.1921 -0.7156 -0.6716
vn 0.1921 -0.7154 -0.6717
vt 0.633900 0.324200
vt 0.631300 0.320600
vt 0.633900 0.316700
vt 0.862100 0.449700
vt 0.849200 0.368500
vt 0.908400 0.365500
vt 0.325600 0.818300
vt 0.325600 0.859700
vt 0.315200 0.851300
vt 0.835900 0.238800
vt 0.843400 0.047200
vt 0.898100 0.031000
vt 0.268800 0.459600
vt 0.325900 0.513200
vt 0.278100 0.489500
vt 0.341800 0.947500
vt 0.370400 0.880200
vt 0.399400 0.947500
vt 0.317100 0.883600
vt 0.281600 0.924400
vt 0.294700 0.894100
vt 0.797900 0.858400
vt 0.797900 0.954700
vt 0.752000 0.898000
vt 0.959400 0.845100
vt 0.920100 0.841200
vt 0.946100 0.761000
vt 0.328100 0.728400
vt 0.315200 0.668000
vt 0.328100 0.645600
vt 0.901100 0.904500
vt 0.938400 0.947500
vt 0.891700 0.947500
vt 0.169800 0.952500
vt 0.121900 0.891200
vt 0.169800 0.841100
vt 0.846600 0.846800
vt 0.885500 0.767000
vt 0.907000 0.841800
vt 0.268500 0.884600
vt 0.233400 0.910900
vt 0.254400 0.883600
vt 0.631300 0.340500
vt 0.633600 0.337200
vt 0.633600 0.340600
vt 0.618300 0.325800
vt 0.613500 0.324000
vt 0.618300 0.316700
vt 0.967700 0.354900
vt 0.930700 0.383600
vt 0.933000 0.355700
vt 0.897400 0.328900
vt 0.910200 0.295800
vt 0.910200 0.338600
vt 0.946900 0.154900
vt 0.934100 0.273500
vt 0.911200 0.184100
vt 0.878600 0.949300
vt 0.831200 0.908600
vt 0.847000 0.881000
vt 0.298800 0.870500
vt 0.233400 0.772500
vt 0.249400 0.699500
vt 0.025800 0.806800
vt 0.106100 0.687500
vt 0.103800 0.879300
vt 0.083600 0.913600
vt 0.105000 0.892400
vt 0.105000 0.941400
vt 0.832200 0.338600
vt 0.847800 0.274400
vt 0.877400 0.276300
vt 0.922200 0.471100
vt 0.870400 0.556900
vt 0.880900 0.471200
vt 0.025800 0.955800
vt 0.062700 0.892400
vt 0.070500 0.955800
vt 0.570300 0.929800
vt 0.547600 0.967900
vt 0.544400 0.920800
vt 0.207600 0.028400
vt 0.210400 0.377100
vt 0.025800 0.218700
vt 0.412500 0.929300
vt 0.437900 0.875100
vt 0.467900 0.939700
vt 0.268800 0.645600
vt 0.269500 0.648400
vt 0.268200 0.648400
vt 0.303200 0.632500
vt 0.275500 0.539500
vt 0.328100 0.574300
vt 0.487100 0.847100
vt 0.341800 0.829500
vt 0.461300 0.662100
vt 0.317300 0.753600
vt 0.326100 0.804000
vt 0.315200 0.805200
vt 0.738900 0.962900
vt 0.698400 0.887500
vt 0.738900 0.858400
vt 0.517900 0.932000
vt 0.503900 0.980000
vt 0.505400 0.920800
vt 0.797300 0.823100
vt 0.626400 0.778000
vt 0.756800 0.623300
vt 0.583900 0.939200
vt 0.608800 0.969400
vt 0.583300 0.941700
vt 0.974800 0.948600
vt 0.977400 0.881000
vt 0.977400 0.948700
vt 0.183600 0.842100
vt 0.216800 0.943300
vt 0.203700 0.948600
vt 0.935300 0.516000
vt 0.957000 0.467900
vt 0.957000 0.546200
vt 0.753400 0.596400
vt 0.625400 0.493300
vt 0.780500 0.354900
vt 0.255100 0.624300
vt 0.068100 0.642800
vt 0.040700 0.442700
vt 0.612300 0.600400
vt 0.369200 0.596000
vt 0.440200 0.357800
vt 0.128600 0.807100
vt 0.174200 0.687500
vt 0.220300 0.806200
vt 0.911200 0.104400
vt 0.953200 0.028400
vt 0.953200 0.141800
vt 0.488600 0.875100
vt 0.488600 0.914300
vt 0.480900 0.879000
vt 0.949400 0.609500
vt 0.949500 0.734600
vt 0.914300 0.717500
vt 0.837600 0.638100
vt 0.894500 0.624500
vt 0.859100 0.748000
vt 0.678400 0.858400
vt 0.683200 0.939700
vt 0.645900 0.929400
vt 0.585700 0.900900
vt 0.547300 0.907700
vt 0.503900 0.784900
vt 0.577700 0.306600
vt 0.346600 0.168700
vt 0.430100 0.028400
vt 0.744700 0.028400
vt 0.805800 0.224700
vt 0.626800 0.066900
vt 0.917600 0.375800
vt 0.917600 0.454900
vt 0.847000 0.415200
vt 0.869100 0.354900
vt 0.898100 0.260800
vt 0.882200 0.261300
vt 0.818900 0.222300
vt 0.864700 0.028400
vt 0.268200 0.468200
vt 0.325900 0.390200
vt 0.310000 0.511300
vt 0.354500 0.875100
vt 0.317100 0.962100
vt 0.959400 0.784500
vt 0.930700 0.854200
vt 0.931800 0.766200
vt 0.316000 0.727100
vt 0.917700 0.881000
vt 0.119200 0.904900
vt 0.888300 0.867900
vt 0.831200 0.804000
vt 0.907000 0.761000
vt 0.268500 0.966500
vt 0.967700 0.414500
vt 0.893600 0.305300
vt 0.946900 0.282400
vt 0.878600 0.890800
vt 0.864600 0.948100
vt 0.296800 0.687500
vt 0.298800 0.689700
vt 0.298700 0.870500
vt 0.294800 0.869000
vt 0.281100 0.854300
vt 0.239900 0.729600
vt 0.051600 0.858300
vt 0.031700 0.826300
vt 0.081400 0.689800
vt 0.106100 0.877700
vt 0.880500 0.338600
vt 0.818900 0.325400
vt 0.921000 0.467900
vt 0.922200 0.557100
vt 0.847000 0.536400
vt 0.570300 0.978300
vt 0.090700 0.062900
vt 0.124900 0.046500
vt 0.328800 0.088300
vt 0.328800 0.318200
vt 0.299400 0.346000
vt 0.167600 0.376100
vt 0.085100 0.332100
vt 0.040900 0.262000
vt 0.026700 0.186500
vt 0.070400 0.084100
vt 0.467500 0.940200
vt 0.416900 0.941900
vt 0.416700 0.882000
vt 0.467900 0.878900
vt 0.269500 0.645600
vt 0.328100 0.632300
vt 0.268200 0.603000
vt 0.281600 0.526300
vt 0.462400 0.662700
vt 0.490800 0.720300
vt 0.490800 0.842300
vt 0.354000 0.862000
vt 0.434300 0.666400
vt 0.326100 0.741500
vt 0.696300 0.933700
vt 0.531300 0.980000
vt 0.818100 0.688300
vt 0.812300 0.792100
vt 0.757600 0.845300
vt 0.687900 0.845300
vt 0.644200 0.818300
vt 0.625400 0.697300
vt 0.653500 0.632300
vt 0.712200 0.609500
vt 0.797400 0.650100
vt 0.816700 0.680900
vt 0.608800 0.920800
vt 0.951500 0.898000
vt 0.182900 0.846800
vt 0.216800 0.841100
vt 0.833900 0.387100
vt 0.833900 0.565000
vt 0.794500 0.591400
vt 0.708300 0.593200
vt 0.667400 0.575300
vt 0.638000 0.540100
vt 0.752500 0.355400
vt 0.181400 0.390200
vt 0.200600 0.391000
vt 0.217300 0.401100
vt 0.255100 0.447400
vt 0.250300 0.632100
vt 0.182600 0.673300
vt 0.167700 0.674400
vt 0.055100 0.632200
vt 0.025800 0.563900
vt 0.030400 0.467700
vt 0.059700 0.427900
vt 0.552200 0.354900
vt 0.612300 0.462200
vt 0.548800 0.641100
vt 0.518600 0.649000
vt 0.426700 0.640800
vt 0.341800 0.521700
vt 0.342200 0.512300
vt 0.406000 0.397900
vt 0.194600 0.827300
vt 0.190300 0.828000
vt 0.154100 0.824700
vt 0.119200 0.740100
vt 0.220300 0.706500
vt 0.907600 0.695800
vt 0.949500 0.609500
vt 0.946900 0.733700
vt 0.857700 0.747900
vt 0.831200 0.712400
vt 0.888800 0.609500
vt 0.894500 0.736500
vt 0.625400 0.874500
vt 0.683200 0.860500
vt 0.564800 0.662100
vt 0.601700 0.674300
vt 0.601700 0.812400
vt 0.550200 0.907500
vt 0.522000 0.872100
vt 0.599600 0.091400
vt 0.600400 0.092400
vt 0.600400 0.282600
vt 0.498800 0.341200
vt 0.495000 0.341800
vt 0.394700 0.271400
vt 0.341800 0.117200
vt 0.628000 0.065000
vt 0.663900 0.039800
vt 0.755300 0.032100
vt 0.769500 0.049100
vt 0.805800 0.122500
vt 0.744800 0.303600
vt 0.639200 0.256100
vt 0.613500 0.190900
s 1
usemtl boulder
f 76/1/1 74/2/1 15/3/1
f 67/4/2 73/5/2 72/6/2
f 62/7/3 36/8/3 57/9/3
f 42/10/4 43/11/4 41/12/4
f 97/13/5 95/14/5 92/15/5
f 22/16/6 4/17/6 21/18/6
f 51/19/7 46/20/7 55/21/7
f 31/22/8 32/23/8 16/24/8
f 16/25/9 2/26/9 30/27/9
f 2/28/10 13/29/10 8/30/10
f 8/31/11 12/32/11 7/33/11
f 3/34/12 21/35/12 4/36/12
f 12/37/13 23/38/13 3/39/13
f 19/40/14 11/41/15 14/42/14
f 47/43/16 45/44/16 18/45/16
f 81/46/17 80/47/17 34/48/17
f 82/49/18 39/50/18 83/51/18
f 25/52/19 1/53/19 9/54/19
f 26/55/20 9/56/20 10/57/20
f 24/58/21 10/59/21 41/60/21
f 65/61/22 61/62/23 57/63/23
f 53/64/24 55/65/24 50/66/24
f 52/67/25 42/68/25 54/69/25
f 29/70/26 40/71/26 43/72/26
f 45/73/27 6/74/27 22/75/27
f 61/76/28 60/77/28 38/78/28
f 84/79/29 48/80/29 85/81/29
f 51/82/30 9/83/30 7/84/30
f 36/85/31 42/86/31 50/87/31
f 59/88/32 56/89/33 64/90/33
f 37/91/34 60/92/34 49/93/34
f 81/94/35 83/95/35 85/96/36
f 28/97/37 71/98/37 72/99/37
f 28/100/38 68/101/38 27/102/38
f 27/103/39 73/104/39 33/105/39
f 11/106/40 16/107/40 69/108/40
f 75/109/41 69/110/42 67/111/41
f 67/112/43 78/113/43 75/114/43
f 74/115/44 19/116/45 14/117/45
f 66/118/46 87/119/46 86/120/46
f 62/121/47 84/122/47 39/123/47
f 81/124/48 27/125/48 30/126/48
f 90/127/49 35/128/49 66/129/49
f 75/130/50 90/131/50 77/132/50
f 100/133/51 99/134/51 98/135/51
f 93/136/52 88/137/52 97/138/52
f 58/139/53 89/140/54 93/141/55
f 49/142/56 95/143/56 86/144/57
f 63/145/58 92/146/58 94/147/58
f 97/148/59 89/149/59 100/150/59
f 46/151/60 99/152/60 65/153/60
f 21/154/61 77/155/61 47/156/61
f 71/157/2 70/158/2 67/4/2
f 67/4/2 69/159/2 73/5/2
f 73/5/2 68/160/2 72/6/2
f 72/6/2 71/157/2 67/4/2
f 53/161/4 54/162/4 42/10/4
f 42/10/4 44/163/4 43/11/4
f 43/11/4 40/164/4 41/12/4
f 41/12/4 53/161/4 42/10/4
f 92/15/5 93/165/62 97/13/5
f 97/13/5 96/166/5 95/14/5
f 95/14/5 94/167/62 92/15/5
f 22/16/6 5/168/6 4/17/6
f 51/19/7 6/169/7 46/20/7
f 30/27/9 31/170/63 16/25/9
f 16/25/9 17/171/63 2/26/9
f 2/26/9 1/172/9 30/27/9
f 2/28/10 17/173/10 13/29/10
f 8/31/11 13/174/11 12/32/11
f 3/34/12 20/175/12 21/35/12
f 3/39/13 7/176/13 12/37/13
f 12/37/13 11/177/13 23/38/13
f 23/38/13 20/178/13 3/39/13
f 19/40/14 23/179/15 11/41/15
f 82/49/18 29/180/18 39/50/18
f 25/52/19 30/181/19 1/53/19
f 26/55/20 25/182/20 9/56/20
f 41/60/21 40/183/21 24/58/21
f 24/58/21 26/184/64 10/59/21
f 59/185/23 64/186/23 65/61/22
f 65/61/22 58/187/65 63/188/23
f 63/188/23 60/189/23 61/62/23
f 61/62/23 62/190/23 57/63/23
f 57/63/23 59/185/23 65/61/22
f 65/61/22 63/188/23 61/62/23
f 52/191/24 54/192/24 53/64/24
f 53/64/24 51/193/24 55/65/24
f 55/65/24 56/194/24 50/66/24
f 50/66/24 52/191/24 53/64/24
f 43/72/26 39/195/26 29/70/26
f 29/70/26 24/196/26 40/71/26
f 22/75/27 18/197/27 45/73/27
f 45/73/27 46/198/27 6/74/27
f 6/74/27 5/199/27 22/75/27
f 84/79/29 37/200/29 48/80/29
f 5/201/30 6/202/30 51/82/30
f 51/82/30 53/203/30 41/204/30
f 41/204/30 10/205/30 9/83/30
f 9/83/30 1/206/30 2/207/30
f 2/207/30 8/208/30 7/84/30
f 7/84/30 3/209/30 4/210/30
f 4/210/30 5/201/30 51/82/30
f 51/82/30 41/204/30 9/83/30
f 9/83/30 2/207/30 7/84/30
f 7/84/30 4/210/30 51/82/30
f 59/211/31 57/212/66 36/85/31
f 36/85/31 44/213/31 42/86/31
f 42/86/31 52/214/31 50/87/31
f 50/87/31 59/211/31 36/85/31
f 59/88/32 50/215/67 56/89/33
f 49/93/34 48/216/34 37/91/34
f 37/91/34 38/217/34 60/92/34
f 60/92/34 63/218/34 49/93/34
f 85/96/36 86/219/68 87/220/35
f 87/220/35 80/221/35 81/94/35
f 81/94/35 82/222/35 83/95/35
f 83/95/35 84/223/35 85/96/36
f 85/96/36 87/220/35 81/94/35
f 28/97/37 35/224/37 71/98/37
f 28/100/38 72/225/38 68/101/38
f 27/103/39 68/226/39 73/104/39
f 15/227/69 14/228/40 11/106/40
f 11/106/40 12/229/40 13/230/40
f 13/230/40 17/231/40 16/107/40
f 16/107/40 32/232/40 33/233/40
f 33/233/40 73/234/40 69/108/40
f 69/108/40 79/235/40 76/236/40
f 76/236/40 15/227/69 11/106/40
f 11/106/40 13/230/40 16/107/40
f 16/107/40 33/233/40 69/108/40
f 69/108/40 76/236/40 11/106/40
f 75/109/41 79/237/70 69/110/42
f 67/112/43 70/238/43 78/113/43
f 14/117/45 15/239/71 74/115/44
f 74/115/44 77/240/45 19/116/45
f 39/123/47 43/241/47 44/242/47
f 44/242/47 36/243/72 62/121/47
f 62/121/47 61/244/47 38/245/47
f 38/245/47 37/246/47 84/122/47
f 84/122/47 83/247/47 39/123/47
f 39/123/47 44/242/47 62/121/47
f 62/121/47 38/245/47 84/122/47
f 26/248/48 24/249/48 29/250/48
f 29/250/48 82/251/48 81/124/48
f 81/124/48 34/252/73 35/253/48
f 35/253/48 28/254/48 27/125/48
f 27/125/48 33/255/48 32/256/48
f 32/256/48 31/257/73 30/126/48
f 30/126/48 25/258/48 26/248/48
f 26/248/48 29/250/48 81/124/48
f 81/124/48 35/253/48 27/125/48
f 27/125/48 32/256/48 30/126/48
f 30/126/48 26/248/48 81/124/48
f 95/259/49 96/260/49 90/127/49
f 90/127/49 78/261/49 70/262/49
f 70/262/49 71/263/49 35/128/49
f 35/128/49 34/264/49 80/265/49
f 80/265/49 87/266/49 66/129/49
f 66/129/49 95/259/49 90/127/49
f 90/127/49 70/262/49 35/128/49
f 35/128/49 80/265/49 66/129/49
f 77/132/50 74/267/74 76/268/50
f 76/268/50 79/269/50 75/130/50
f 75/130/50 78/270/50 90/131/50
f 90/131/50 91/271/50 77/132/50
f 77/132/50 76/268/50 75/130/50
f 93/141/55 92/272/55 58/139/53
f 58/139/53 65/273/75 89/140/54
f 89/140/54 88/274/76 93/141/55
f 85/275/77 48/276/56 49/142/56
f 49/142/56 94/277/56 95/143/56
f 95/143/56 66/278/56 86/144/57
f 86/144/57 85/275/77 49/142/56
f 94/147/58 49/279/58 63/145/58
f 63/145/58 58/280/58 92/146/58
f 100/150/59 91/281/59 90/282/59
f 90/282/59 96/283/59 97/148/59
f 97/148/59 88/284/78 89/149/59
f 89/149/59 99/285/79 100/150/59
f 100/150/59 90/282/59 97/148/59
f 65/153/60 64/286/80 56/287/81
f 56/287/81 55/288/60 46/151/60
f 46/151/60 45/289/60 47/290/60
f 47/290/60 98/291/60 99/152/60
f 99/152/60 89/292/60 65/153/60
f 65/153/60 56/287/81 46/151/60
f 46/151/60 47/290/60 99/152/60
f 18/293/61 22/294/61 21/154/61
f 21/154/61 20/295/61 23/296/61
f 23/296/61 19/297/61 77/155/61
f 77/155/61 91/298/61 100/299/61
f 100/299/61 98/300/61 47/156/61
f 47/156/61 18/293/61 21/154/61
f 21/154/61 23/296/61 77/155/61
f 77/155/61 100/299/61 47/156/61
