# Blender 4.4.1
# www.blender.org
mtllib sword.mtl
o 立方体.001
v -0.378203 3.750000 0.100000
v -0.373347 5.961236 0.100000
v -0.378203 3.750000 -0.100000
v -0.373347 5.961236 -0.100000
v 0.500000 3.750000 0.100000
v 0.503237 7.175983 -0.001410
v 0.500000 3.750000 -0.100000
v -0.500000 3.750000 -0.004231
v -0.500000 5.961236 -0.004231
v 0.500000 3.750000 -0.004231
v -0.494977 5.961236 -0.004231
v 0.500000 5.961236 -0.004231
v 0.500000 5.961236 0.100000
v 0.500000 5.961236 -0.100000
v 0.000000 2.250000 -0.100000
v 0.000000 3.750000 -0.100000
v 0.019509 2.250000 -0.098079
v 0.019509 3.750000 -0.098079
v 0.038268 2.250000 -0.092388
v 0.038268 3.750000 -0.092388
v 0.055557 2.250000 -0.083147
v 0.055557 3.750000 -0.083147
v 0.070711 2.250000 -0.070711
v 0.070711 3.750000 -0.070711
v 0.083147 2.250000 -0.055557
v 0.083147 3.750000 -0.055557
v 0.092388 2.250000 -0.038268
v 0.092388 3.750000 -0.038268
v 0.098079 2.250000 -0.019509
v 0.098079 3.750000 -0.019509
v 0.100000 2.250000 0.000000
v 0.100000 3.750000 0.000000
v 0.098079 2.250000 0.019509
v 0.098079 3.750000 0.019509
v 0.092388 2.250000 0.038268
v 0.092388 3.750000 0.038268
v 0.083147 2.250000 0.055557
v 0.083147 3.750000 0.055557
v 0.070711 2.250000 0.070711
v 0.070711 3.750000 0.070711
v 0.055557 2.250000 0.083147
v 0.055557 3.750000 0.083147
v 0.038268 2.250000 0.092388
v 0.038268 3.750000 0.092388
v 0.019509 2.250000 0.098079
v 0.019509 3.750000 0.098079
v 0.000000 2.250000 0.100000
v 0.000000 3.750000 0.100000
v -0.019509 2.250000 0.098079
v -0.019509 3.750000 0.098079
v -0.038268 2.250000 0.092388
v -0.038268 3.750000 0.092388
v -0.055557 2.250000 0.083147
v -0.055557 3.750000 0.083147
v -0.070711 2.250000 0.070711
v -0.070711 3.750000 0.070711
v -0.083147 2.250000 0.055557
v -0.083147 3.750000 0.055557
v -0.092388 2.250000 0.038268
v -0.092388 3.750000 0.038268
v -0.098079 2.250000 0.019509
v -0.098079 3.750000 0.019509
v -0.100000 2.250000 0.000000
v -0.100000 3.750000 0.000000
v -0.098079 2.250000 -0.019509
v -0.098079 3.750000 -0.019509
v -0.092388 2.250000 -0.038268
v -0.092388 3.750000 -0.038268
v -0.083147 2.250000 -0.055557
v -0.083147 3.750000 -0.055557
v -0.070711 2.250000 -0.070711
v -0.070711 3.750000 -0.070711
v -0.055557 2.250000 -0.083147
v -0.055557 3.750000 -0.083147
v -0.038268 2.250000 -0.092388
v -0.038268 3.750000 -0.092388
v -0.019509 2.250000 -0.098079
v -0.019509 3.750000 -0.098079
v -0.600000 3.700000 0.250000
v -0.600000 3.800000 0.250000
v -0.600000 3.700000 -0.250000
v -0.600000 3.800000 -0.250000
v 0.600000 3.700000 0.250000
v 0.600000 3.800000 0.250000
v 0.600000 3.700000 -0.250000
v 0.600000 3.800000 -0.250000
vn -0.6181 -0.0000 -0.7861
vn -0.0000 -0.0000 -1.0000
vn 1.0000 -0.0000 -0.0000
vn -0.0000 -0.0000 1.0000
vn -0.0000 -1.0000 -0.0000
vn -0.5742 0.4703 0.6701
vn -0.5511 0.4545 -0.6999
vn -0.6502 -0.0000 0.7598
vn -0.0000 1.0000 -0.0000
vn -0.0000 0.0809 -0.9967
vn 1.0000 -0.0027 -0.0000
vn -0.0000 0.0832 0.9965
vn 0.0980 -0.0000 -0.9952
vn 0.2903 -0.0000 -0.9569
vn 0.4714 -0.0000 -0.8819
vn 0.6344 -0.0000 -0.7730
vn 0.7730 -0.0000 -0.6344
vn 0.8819 -0.0000 -0.4714
vn 0.9569 -0.0000 -0.2903
vn 0.9952 -0.0000 -0.0980
vn 0.9952 -0.0000 0.0980
vn 0.9569 -0.0000 0.2903
vn 0.8819 -0.0000 0.4714
vn 0.7730 -0.0000 0.6344
vn 0.6344 -0.0000 0.7730
vn 0.4714 -0.0000 0.8819
vn 0.2903 -0.0000 0.9569
vn 0.0980 -0.0000 0.9952
vn -0.0980 -0.0000 0.9952
vn -0.2903 -0.0000 0.9569
vn -0.4714 -0.0000 0.8819
vn -0.6344 -0.0000 0.7730
vn -0.7730 -0.0000 0.6344
vn -0.8819 -0.0000 0.4714
vn -0.9569 -0.0000 0.2903
vn -0.9952 -0.0000 0.0980
vn -0.9952 -0.0000 -0.0980
vn -0.9569 -0.0000 -0.2903
vn -0.8819 -0.0000 -0.4714
vn -0.7730 -0.0000 -0.6344
vn -0.6344 -0.0000 -0.7730
vn -0.4714 -0.0000 -0.8819
vn -0.2903 -0.0000 -0.9569
vn -0.0980 -0.0000 -0.9952
vn -1.0000 -0.0000 -0.0000
vn -0.6031 0.0013 -0.7976
vn -0.6354 0.0014 0.7721
vn 0.0001 -1.0000 -0.0000
vn -0.0001 -1.0000 -0.0000
vt 0.625000 0.130288
vt 0.375000 0.250000
vt 0.375000 0.130288
vt 0.625000 0.250000
vt 0.375000 0.500000
vt 0.535388 0.619712
vt 0.375000 0.750000
vt 0.375000 0.619712
vt 0.625000 1.000000
vt 0.375000 1.000000
vt 0.125000 0.750000
vt 0.125000 0.619712
vt 0.625000 0.619712
vt 0.873744 0.619712
vt 0.875000 0.750000
vt 0.875000 0.500000
vt 0.625000 0.500000
vt 0.125000 0.500000
vt 0.535012 0.500000
vt 0.375000 0.000000
vt 0.875000 0.619712
vt 0.535797 0.750000
vt 0.625000 0.750000
vt 1.000000 1.000000
vt 0.968750 0.500000
vt 1.000000 0.500000
vt 0.968750 1.000000
vt 0.937500 0.500000
vt 0.937500 1.000000
vt 0.906250 0.500000
vt 0.906250 1.000000
vt 0.875000 1.000000
vt 0.843750 0.500000
vt 0.843750 1.000000
vt 0.812500 0.500000
vt 0.812500 1.000000
vt 0.781250 0.500000
vt 0.781250 1.000000
vt 0.750000 0.500000
vt 0.750000 1.000000
vt 0.718750 0.500000
vt 0.718750 1.000000
vt 0.687500 0.500000
vt 0.687500 1.000000
vt 0.656250 0.500000
vt 0.656250 1.000000
vt 0.593750 0.500000
vt 0.593750 1.000000
vt 0.562500 0.500000
vt 0.562500 1.000000
vt 0.531250 0.500000
vt 0.531250 1.000000
vt 0.500000 0.500000
vt 0.500000 1.000000
vt 0.468750 0.500000
vt 0.468750 1.000000
vt 0.437500 0.500000
vt 0.437500 1.000000
vt 0.406250 0.500000
vt 0.406250 1.000000
vt 0.343750 0.500000
vt 0.343750 1.000000
vt 0.312500 0.500000
vt 0.312500 1.000000
vt 0.281250 0.500000
vt 0.281250 1.000000
vt 0.250000 0.500000
vt 0.250000 1.000000
vt 0.218750 0.500000
vt 0.218750 1.000000
vt 0.187500 0.500000
vt 0.187500 1.000000
vt 0.156250 0.500000
vt 0.156250 1.000000
vt 0.125000 1.000000
vt 0.093750 0.500000
vt 0.093750 1.000000
vt 0.062500 0.500000
vt 0.158156 0.028269
vt 0.471731 0.158156
vt 0.341844 0.471731
vt 0.062500 1.000000
vt 0.031250 0.500000
vt 0.031250 1.000000
vt 0.000000 0.500000
vt 0.796822 0.014612
vt 0.514612 0.203178
vt 0.703178 0.485388
vt 0.625000 0.000000
vt 0.296822 0.485388
vt 0.250000 0.490000
vt 0.203178 0.485388
vt 0.158156 0.471731
vt 0.116663 0.449553
vt 0.080294 0.419706
vt 0.050447 0.383337
vt 0.028269 0.341844
vt 0.014612 0.296822
vt 0.010000 0.250000
vt 0.014612 0.203178
vt 0.028269 0.158156
vt 0.050447 0.116663
vt 0.080294 0.080294
vt 0.116663 0.050447
vt 0.203178 0.014612
vt 0.250000 0.010000
vt 0.296822 0.014612
vt 0.341844 0.028269
vt 0.383337 0.050447
vt 0.419706 0.080294
vt 0.449553 0.116663
vt 0.485388 0.203178
vt 0.490000 0.250000
vt 0.485388 0.296822
vt 0.471731 0.341844
vt 0.449553 0.383337
vt 0.419706 0.419706
vt 0.383337 0.449553
vt 0.000000 1.000000
vt 0.750000 0.490000
vt 0.796822 0.485388
vt 0.841844 0.471731
vt 0.883337 0.449553
vt 0.919706 0.419706
vt 0.949553 0.383337
vt 0.971731 0.341844
vt 0.985388 0.296822
vt 0.990000 0.250000
vt 0.985388 0.203178
vt 0.971731 0.158156
vt 0.949553 0.116663
vt 0.919706 0.080294
vt 0.883337 0.050447
vt 0.841844 0.028269
vt 0.750000 0.010000
vt 0.703178 0.014612
vt 0.658156 0.028269
vt 0.616663 0.050447
vt 0.580294 0.080294
vt 0.550447 0.116663
vt 0.528269 0.158156
vt 0.510000 0.250000
vt 0.514612 0.296822
vt 0.528269 0.341844
vt 0.550447 0.383337
vt 0.580294 0.419706
vt 0.616663 0.449553
vt 0.658156 0.471731
s 0
f 9/1/1 3/2/1 8/3/1
f 4/4/2 7/5/2 3/2/2
f 12/6/3 5/7/3 10/8/3
f 5/7/4 2/9/4 1/10/4
f 10/8/5 1/11/5 8/12/5
f 6/13/6 11/14/6 2/15/6
f 4/16/7 11/14/7 6/17/7
f 3/18/5 10/8/5 8/12/5
f 14/19/3 10/8/3 7/5/3
f 1/20/8 9/1/8 8/3/8
f 2/15/9 11/14/9 9/21/9
f 14/19/10 4/4/10 6/17/10
f 13/22/11 12/6/11 6/23/11
f 2/9/12 13/22/12 6/23/12
f 12/6/11 14/19/11 6/13/11
f 16/24/13 17/25/13 15/26/13
f 18/27/14 19/28/14 17/25/14
f 20/29/15 21/30/15 19/28/15
f 22/31/16 23/16/16 21/30/16
f 24/32/17 25/33/17 23/16/17
f 26/34/18 27/35/18 25/33/18
f 28/36/19 29/37/19 27/35/19
f 30/38/20 31/39/20 29/37/20
f 32/40/21 33/41/21 31/39/21
f 34/42/22 35/43/22 33/41/22
f 36/44/23 37/45/23 35/43/23
f 38/46/24 39/17/24 37/45/24
f 40/9/25 41/47/25 39/17/25
f 42/48/26 43/49/26 41/47/26
f 44/50/27 45/51/27 43/49/27
f 46/52/28 47/53/28 45/51/28
f 48/54/29 49/55/29 47/53/29
f 50/56/30 51/57/30 49/55/30
f 52/58/31 53/59/31 51/57/31
f 54/60/32 55/5/32 53/59/32
f 56/10/33 57/61/33 55/5/33
f 58/62/34 59/63/34 57/61/34
f 60/64/35 61/65/35 59/63/35
f 62/66/36 63/67/36 61/65/36
f 64/68/37 65/69/37 63/67/37
f 66/70/38 67/71/38 65/69/38
f 68/72/39 69/73/39 67/71/39
f 70/74/40 71/18/40 69/73/40
f 72/75/41 73/76/41 71/18/41
f 74/77/42 75/78/42 73/76/42
f 52/79/9 36/80/9 20/81/9
f 76/82/43 77/83/43 75/78/43
f 78/84/44 15/85/44 77/83/44
f 45/86/5 61/87/5 77/88/5
f 80/89/45 81/2/45 79/20/45
f 82/4/2 85/5/2 81/2/2
f 86/17/3 83/7/3 85/5/3
f 84/23/4 79/10/4 83/7/4
f 85/5/5 79/11/5 81/18/5
f 82/16/9 84/23/9 86/17/9
f 9/1/46 4/4/46 3/2/46
f 4/4/2 14/19/2 7/5/2
f 12/6/3 13/22/3 5/7/3
f 5/7/4 13/22/4 2/9/4
f 10/8/5 5/7/5 1/11/5
f 4/16/9 9/21/9 11/14/9
f 3/18/5 7/5/5 10/8/5
f 14/19/3 12/6/3 10/8/3
f 1/20/47 2/89/47 9/1/47
f 16/24/13 18/27/13 17/25/13
f 18/27/14 20/29/14 19/28/14
f 20/29/15 22/31/15 21/30/15
f 22/31/16 24/32/16 23/16/16
f 24/32/17 26/34/17 25/33/17
f 26/34/18 28/36/18 27/35/18
f 28/36/19 30/38/19 29/37/19
f 30/38/20 32/40/20 31/39/20
f 32/40/21 34/42/21 33/41/21
f 34/42/22 36/44/22 35/43/22
f 36/44/23 38/46/23 37/45/23
f 38/46/24 40/9/24 39/17/24
f 40/9/25 42/48/25 41/47/25
f 42/48/26 44/50/26 43/49/26
f 44/50/27 46/52/27 45/51/27
f 46/52/28 48/54/28 47/53/28
f 48/54/29 50/56/29 49/55/29
f 50/56/30 52/58/30 51/57/30
f 52/58/31 54/60/31 53/59/31
f 54/60/32 56/10/32 55/5/32
f 56/10/33 58/62/33 57/61/33
f 58/62/34 60/64/34 59/63/34
f 60/64/35 62/66/35 61/65/35
f 62/66/36 64/68/36 63/67/36
f 64/68/37 66/70/37 65/69/37
f 66/70/38 68/72/38 67/71/38
f 68/72/39 70/74/39 69/73/39
f 70/74/40 72/75/40 71/18/40
f 72/75/41 74/77/41 73/76/41
f 74/77/42 76/82/42 75/78/42
f 20/81/9 18/90/9 16/91/9
f 16/91/9 78/92/9 76/93/9
f 76/93/9 74/94/9 72/95/9
f 72/95/9 70/96/9 68/97/9
f 68/97/9 66/98/9 64/99/9
f 64/99/9 62/100/9 60/101/9
f 60/101/9 58/102/9 56/103/9
f 56/103/9 54/104/9 52/79/9
f 52/79/9 50/105/9 48/106/9
f 48/106/9 46/107/9 44/108/9
f 44/108/9 42/109/9 40/110/9
f 40/110/9 38/111/9 36/80/9
f 36/80/9 34/112/9 32/113/9
f 32/113/9 30/114/9 28/115/9
f 28/115/9 26/116/9 24/117/9
f 24/117/9 22/118/9 20/81/9
f 20/81/9 16/91/9 76/93/9
f 76/93/9 72/95/9 68/97/9
f 68/97/9 64/99/9 60/101/9
f 60/101/9 56/103/9 52/79/9
f 52/79/9 48/106/9 44/108/9
f 44/108/9 40/110/9 36/80/9
f 36/80/9 32/113/9 28/115/9
f 28/115/9 24/117/9 20/81/9
f 20/81/9 76/93/9 68/97/9
f 68/97/9 60/101/9 52/79/9
f 52/79/9 44/108/9 36/80/9
f 36/80/9 28/115/9 20/81/9
f 20/81/9 68/97/9 52/79/9
f 76/82/43 78/84/43 77/83/43
f 78/84/44 16/119/44 15/85/44
f 77/88/5 15/120/5 17/121/5
f 17/121/5 19/122/5 21/123/5
f 21/123/48 23/124/48 25/125/48
f 25/125/5 27/126/5 29/127/5
f 29/127/5 31/128/5 33/129/5
f 33/129/5 35/130/5 37/131/5
f 37/131/48 39/132/48 41/133/48
f 41/133/5 43/134/5 45/86/5
f 45/86/5 47/135/5 49/136/5
f 49/136/5 51/137/5 53/138/5
f 53/138/49 55/139/49 57/140/49
f 57/140/5 59/141/5 61/87/5
f 61/87/5 63/142/5 65/143/5
f 65/143/5 67/144/5 69/145/5
f 69/145/49 71/146/49 73/147/49
f 73/147/5 75/148/5 77/88/5
f 77/88/5 17/121/5 21/123/5
f 21/123/5 25/125/5 29/127/5
f 29/127/49 33/129/49 37/131/49
f 37/131/5 41/133/5 45/86/5
f 45/86/5 49/136/5 53/138/5
f 53/138/5 57/140/5 61/87/5
f 61/87/48 65/143/48 69/145/48
f 69/145/5 73/147/5 77/88/5
f 77/88/5 21/123/5 29/127/5
f 29/127/5 37/131/5 45/86/5
f 45/86/5 53/138/5 61/87/5
f 61/87/5 69/145/5 77/88/5
f 77/88/5 29/127/5 45/86/5
f 80/89/45 82/4/45 81/2/45
f 82/4/2 86/17/2 85/5/2
f 86/17/3 84/23/3 83/7/3
f 84/23/4 80/9/4 79/10/4
f 85/5/5 83/7/5 79/11/5
f 82/16/9 80/15/9 84/23/9
